<?xml version="1.0" encoding="UTF-8"?>
<!DOCTYPE svg PUBLIC "-//W3C//DTD SVG 1.1//EN" "http://www.w3.org/Graphics/SVG/1.1/DTD/svg11.dtd">
<!-- Creator: CorelDRAW 2026 -->
<svg xmlns="http://www.w3.org/2000/svg" xml:space="preserve" width="1000px" height="1000px" version="1.1" style="shape-rendering:geometricPrecision; text-rendering:geometricPrecision; image-rendering:optimizeQuality; fill-rule:evenodd; clip-rule:evenodd"
viewBox="0 0 1000 1000"
 xmlns:xlink="http://www.w3.org/1999/xlink"
 xmlns:xodm="http://www.corel.com/coreldraw/odm/2003">
 <defs>
  <style type="text/css">
   <![CDATA[
    .str0 {stroke:black;stroke-width:10;stroke-miterlimit:22.9256}
    .str1 {stroke:black;stroke-width:5;stroke-miterlimit:22.9256}
    .str4 {stroke:red;stroke-width:5;stroke-miterlimit:22.9256}
    .str2 {stroke:black;stroke-width:6;stroke-miterlimit:22.9256}
    .str3 {stroke:black;stroke-width:5;stroke-linejoin:bevel;stroke-miterlimit:22.9256}
    .fil6 {fill:none}
    .fil4 {fill:#0A1C30}
    .fil0 {fill:#132352}
    .fil1 {fill:#307BA5}
    .fil2 {fill:#A6C8E6}
    .fil3 {fill:#D5E9FA}
    .fil5 {fill:#F2F9FF}
    .fil7 {fill:white}
    .fil8 {fill:red;fill-rule:nonzero}
   ]]>
  </style>
 </defs>
 <g id="Слой_x0020_1">
  <metadata id="CorelCorpID_0Corel-Layer"/>
  <rect class="fil0" width="1000" height="1000"/>
  <image x="1147" y="383.35" width="1036" height="874.65" xlink:href="modern icon_Images\modern icon_ImgID1.png"/>
  <path class="fil1 str0" d="M-5 225.41c106.65,-50.86 207.29,-65.7 326.15,-76.43 113.69,1.86 195.03,16.54 291.85,40.29 105.81,9.32 173.06,31.36 193,69 40,101 -46,182 -90,230 -15,37.66 -26,70 -48,104 -4.55,67.2 -72.33,121.39 -181,154 -163.09,104.3 -327.63,95.18 -492,98.73l0 -619.59z"/>
  <path class="fil2 str0" d="M80.78 843.63c64.43,1.08 124.25,14.75 178.31,37.77l30.91 -18.13 -1.72 31.75c69.07,35.07 127.56,85.68 172.72,144.25 43.33,-56.31 64.53,-157.51 56.23,-234.07 -12.23,-47.93 -36.23,-75.93 -83.23,-107.93 -38.67,13 -52.33,13 -91,26 -74.39,39.81 -187.83,80.55 -262.22,120.36z"/>
  <path class="fil3 str1" d="M-5 597.07c-36.52,-39.86 766.08,-354.66 813.1,-238.26 -18.49,54.42 -63.92,98.71 -92.1,129.46 -15,37.66 -26,70 -48,104 -4.55,67.2 -72.33,121.39 -181,154 -163.09,104.3 -327.63,95.18 -492,98.73l0 -247.93z"/>
  <ellipse class="fil4" transform="matrix(1 -0 -0.130214 1 382.139 315.042)" rx="19" ry="28"/>
  <path class="fil5 str2" d="M507 523.27c104.51,0 145.56,-6.99 183.95,-16.88 5.52,-1.64 7.73,3.98 6.99,4.4 -7.94,48.48 -69.94,124.48 -223.94,118.48 -100.46,-12.65 -167.96,-54.92 -198,-96 -17.99,-36.16 14,-34 34.63,-28.68 47.66,10.86 118.18,18.68 196.37,18.68z"/>
  <path class="fil6 str3" d="M287.95 547.55c11.85,-11.23 22.42,-24.15 29.69,-41.42 14.77,23.77 14.99,47.84 7.46,72.06 16.36,-17.35 30.92,-37.05 39.95,-63.97 14.99,31.65 19.43,62.38 16.44,92.46 22.9,-22.78 46.27,-44.96 55.06,-85.55 15.57,38.12 19.21,72.27 20.78,105.72 22.79,-30.8 41.58,-63.99 49.67,-103.58 16.13,36.4 26.6,70.4 33.89,103.04 21.25,-32.21 34.77,-67.75 44.73,-104.82 17.82,23.29 32.84,48.31 39.91,78.26 13.77,-25.21 24.74,-52.94 30.16,-85.64 6.39,16.49 11.65,33.7 10.43,55.1 10.9,-18.91 22.93,-36.94 24.83,-62.82"/>
  <ellipse class="fil4" transform="matrix(0.499586 -0 0.0602415 0.620908 520.512 369.266)" rx="19" ry="27"/>
  <path class="fil7 str4" d="M-29 56l-1.5 -88.5 177.5 -19.5 246 355c3,15 -7,32 -18,29l-404 -276z"/>
  <polygon class="fil8" points="385.78,298.5 382.1,215.12 336,179 379.5,108.92 342.2,176.82 389.9,210.88 393.54,309 "/>
  <polygon class="fil8" points="391.62,310.07 424.36,278.09 424.47,241.67 424.47,241.67 429.37,277.89 448,299 458.3,246.27 490.83,269.21 490.83,269.21 461.7,253.73 449.36,307.19 427,280 395.1,313.64 "/>
  <polygon class="fil8" points="381,329 390.93,378.18 355.1,399.08 378.32,458.09 350.43,400.12 385.07,375.82 372.61,332.69 "/>
  <polygon class="fil8" points="389.25,374.84 426.75,402.37 386.75,379.16 "/>
  <polygon class="fil8" points="298,315 268.42,289.95 299.99,311.66 369,326 372.61,332.69 300.19,316.8 288.12,336.31 "/>
  <polygon class="fil8" points="386.56,327.92 307,256 391.34,321.54 "/>
  <polygon class="fil8" points="391.22,320.33 310,212 393.47,310.61 "/>
 </g>
</svg>
