<?xml version="1.0" standalone="no"?>
<!DOCTYPE svg PUBLIC "-//W3C//DTD SVG 20010904//EN"
 "http://www.w3.org/TR/2001/REC-SVG-20010904/DTD/svg10.dtd">
<svg version="1.0" xmlns="http://www.w3.org/2000/svg"
 width="1024.000000pt" height="1024.000000pt" viewBox="0 0 1024.000000 1024.000000"
 preserveAspectRatio="xMidYMid meet">

<g transform="translate(0.000000,1024.000000) scale(0.100000,-0.100000)"
fill="#000000" stroke="none">
<path d="M2422 8170 c-18 -11 -41 -34 -52 -52 -20 -33 -20 -57 -20 -2996 0
-2525 2 -2967 14 -2990 8 -15 26 -38 41 -52 25 -24 32 -25 218 -32 106 -4 944
-6 1862 -5 l1670 2 3 142 3 143 -1763 2 -1763 3 0 2785 0 2785 1815 1 c998 1
1827 0 1842 -3 l27 -4 1 -566 c1 -552 1 -567 21 -603 12 -20 35 -45 52 -56 30
-18 64 -19 622 -24 l590 -5 2 -1180 3 -1180 -37 45 c-95 117 -247 241 -274
224 -8 -4 -10 -3 -5 4 9 15 -53 54 -77 48 -9 -2 -15 0 -12 4 6 10 -153 65
-162 56 -3 -3 -12 -1 -19 5 -8 6 -69 13 -136 16 -146 6 -263 -12 -378 -60 -89
-36 -226 -120 -223 -136 2 -6 0 -10 -5 -9 -27 8 -178 -153 -168 -179 3 -8 2
-12 -3 -9 -13 8 -44 -31 -35 -45 4 -8 3 -10 -5 -5 -16 10 -124 -96 -176 -174
-24 -36 -56 -102 -71 -145 -26 -72 -28 -93 -28 -215 0 -193 38 -328 142 -504
56 -96 198 -248 294 -315 l68 -48 6 -689 6 -689 21 -22 c12 -12 33 -25 47 -28
32 -8 49 4 288 191 l183 144 175 -141 c97 -78 198 -155 225 -172 49 -30 50
-30 85 -14 19 9 39 29 44 43 7 17 8 260 4 698 l-7 671 55 37 c30 21 81 63 113
93 33 30 61 55 62 55 2 0 2 -154 1 -342 l-3 -343 -38 -3 -38 -3 3 -142 3 -142
110 -3 c134 -3 183 11 220 66 l25 37 0 2357 c0 1624 -3 2365 -11 2385 -11 32
-1239 1266 -1281 1289 -23 12 -318 14 -2085 14 -2036 0 -2058 0 -2091 -20z
m4603 -820 l410 -410 -417 0 -418 0 0 410 c0 226 3 410 8 410 4 0 192 -185
417 -410z m-645 -2814 c0 -3 -4 -8 -10 -11 -5 -3 -10 -1 -10 4 0 6 5 11 10 11
6 0 10 -2 10 -4z m307 -62 c-3 -3 -12 -4 -19 -1 -8 3 -5 6 6 6 11 1 17 -2 13
-5z m376 -11 c-7 -2 -19 -2 -25 0 -7 3 -2 5 12 5 14 0 19 -2 13 -5z m-829
-129 c3 -8 2 -12 -4 -9 -6 3 -10 10 -10 16 0 14 7 11 14 -7z m1140 -43 c-4 -3
-9 0 -11 7 -3 6 -9 10 -14 6 -5 -3 7 -21 27 -40 21 -19 34 -38 29 -42 -4 -4
-10 -1 -13 6 -2 8 -17 25 -33 40 -22 19 -26 28 -18 39 9 10 15 11 26 2 7 -7
11 -15 7 -18z m199 -36 c-3 -9 -8 -14 -10 -11 -3 3 -2 9 2 15 9 16 15 13 8 -4z
m-408 -65 c10 -11 16 -20 13 -20 -3 0 -13 9 -23 20 -10 11 -16 20 -13 20 3 0
13 -9 23 -20z m259 4 c3 -8 2 -12 -4 -9 -6 3 -10 10 -10 16 0 14 7 11 14 -7z
m-1170 -10 c3 -8 2 -12 -4 -9 -6 3 -10 10 -10 16 0 14 7 11 14 -7z m1197 -31
c13 -16 12 -17 -3 -4 -10 7 -18 15 -18 17 0 8 8 3 21 -13z m216 -15 c-3 -8 -6
-5 -6 6 -1 11 2 17 5 13 3 -3 4 -12 1 -19z m-177 -28 c0 -5 -4 -10 -10 -10 -5
0 -10 5 -10 10 0 6 5 10 10 10 6 0 10 -4 10 -10z m-399 -47 c13 -16 12 -17 -3
-4 -10 7 -18 15 -18 17 0 8 8 3 21 -13z m600 -10 c-8 -15 -10 -15 -11 -2 0 17
10 32 18 25 2 -3 -1 -13 -7 -23z m-1704 -30 c-7 -22 -13 -31 -15 -21 -3 15 14
58 22 58 2 0 -1 -17 -7 -37z m1313 7 c6 -11 8 -20 6 -20 -3 0 -10 9 -16 20 -6
11 -8 20 -6 20 3 0 10 -9 16 -20z m-155 -11 c11 -17 -1 -21 -15 -4 -8 9 -8 15
-2 15 6 0 14 -5 17 -11z m-998 -101 c-3 -7 -5 -2 -5 12 0 14 2 19 5 13 2 -7 2
-19 0 -25z m1051 1 c-3 -8 -7 -3 -11 10 -4 17 -3 21 5 13 5 -5 8 -16 6 -23z
m-1241 -31 c-3 -7 -5 -2 -5 12 0 14 2 19 5 13 2 -7 2 -19 0 -25z m177 -3 c5
-22 4 -26 -4 -15 -5 8 -10 24 -10 34 0 26 6 18 14 -19z m1083 -37 c-3 -8 -6
-5 -6 6 -1 11 2 17 5 13 3 -3 4 -12 1 -19z m-750 -30 c-3 -8 -6 -5 -6 6 -1 11
2 17 5 13 3 -3 4 -12 1 -19z m1279 -86 c-13 -12 -18 9 -10 45 l8 38 4 -39 c2
-21 1 -41 -2 -44z m-1799 36 c-3 -8 -6 -5 -6 6 -1 11 2 17 5 13 3 -3 4 -12 1
-19z m519 -45 c-10 -10 -19 5 -10 18 6 11 8 11 12 0 2 -7 1 -15 -2 -18z m-327
-55 c0 -31 -1 -31 -10 -10 -5 13 -7 28 -3 33 10 16 14 9 13 -23z m391 -122 c0
-5 -7 -1 -15 10 -8 10 -14 24 -14 29 0 6 6 1 14 -9 8 -11 15 -24 15 -30z m981
-37 c-5 -13 -10 -19 -10 -12 -1 15 10 45 15 40 3 -2 0 -15 -5 -28z m-1325 -28
c0 -11 -4 -17 -8 -15 -4 3 -8 12 -8 20 0 8 4 14 8 14 4 0 8 -9 8 -19z m1511
-3 c-3 -8 -6 -5 -6 6 -1 11 2 17 5 13 3 -3 4 -12 1 -19z m-1037 -38 c8 -5 11
-10 5 -10 -5 0 -17 5 -25 10 -8 5 -10 10 -5 10 6 0 17 -5 25 -10z m-436 -26
c3 -8 2 -12 -4 -9 -6 3 -10 10 -10 16 0 14 7 11 14 -7z m766 -4 c-13 -8 -12
-10 4 -10 11 0 17 -3 13 -6 -3 -3 -15 -3 -28 1 -17 6 -19 9 -8 16 8 5 19 9 24
9 6 0 3 -5 -5 -10z m200 -30 c-8 -5 -19 -10 -25 -10 -5 0 -3 5 5 10 8 5 20 10
25 10 6 0 3 -5 -5 -10z m-930 -28 c0 -15 -2 -15 -10 -2 -13 20 -13 33 0 25 6
-3 10 -14 10 -23z m38 -57 c-3 -3 -9 2 -12 12 -6 14 -5 15 5 6 7 -7 10 -15 7
-18z m787 15 c-3 -5 -16 -10 -28 -9 -20 1 -20 2 3 9 14 4 26 8 28 9 2 1 0 -3
-3 -9z m526 -13 c-10 -9 -11 -8 -5 6 3 10 9 15 12 12 3 -3 0 -11 -7 -18z m-18
-32 c-3 -9 -8 -14 -10 -11 -3 3 -2 9 2 15 9 16 15 13 8 -4z m-1448 -47 c24
-25 25 -29 8 -19 -13 6 -27 20 -33 31 -15 27 -10 25 25 -12z m220 23 c3 -5 2
-12 -3 -15 -5 -3 -9 1 -9 9 0 17 3 19 12 6z m952 -26 c0 -8 -4 -12 -9 -9 -5 3
-6 10 -3 15 9 13 12 11 12 -6z m-1127 -55 c6 -11 9 -20 7 -20 -2 0 -12 9 -22
20 -10 11 -13 20 -7 20 6 0 16 -9 22 -20z m1087 -2 c-3 -8 -6 -5 -6 6 -1 11 2
17 5 13 3 -3 4 -12 1 -19z m-1042 -48 c10 -11 16 -20 13 -20 -3 0 -13 9 -23
20 -10 11 -16 20 -13 20 3 0 13 -9 23 -20z m1100 -90 c3 -6 -1 -7 -9 -4 -18 7
-21 14 -7 14 6 0 13 -4 16 -10z m-265 -124 c0 -2 -7 -7 -16 -10 -8 -3 -12 -2
-9 4 6 10 25 14 25 6z m-163 -32 c-3 -3 -12 -4 -19 -1 -8 3 -5 6 6 6 11 1 17
-2 13 -5z m253 -596 c0 -259 -3 -468 -7 -464 -5 4 -8 13 -8 19 -1 7 -5 11 -11
10 -5 -1 -21 7 -34 18 -18 13 -20 19 -9 19 8 0 21 -6 28 -12 11 -11 12 -8 7
17 -10 40 -18 47 -50 39 -25 -6 -25 -7 -9 -20 10 -7 13 -14 7 -14 -5 0 -25 11
-44 25 -19 14 -29 25 -22 25 7 0 9 7 5 18 -6 15 -5 15 10 3 11 -9 17 -10 17
-2 0 6 -4 11 -10 11 -5 0 -10 7 -10 16 0 9 5 12 13 8 7 -4 9 -3 4 2 -5 5 -17
10 -28 10 -10 1 -25 2 -33 3 -8 0 -17 13 -20 27 -5 19 -11 24 -26 19 -14 -4
-20 -2 -20 9 0 8 8 17 18 19 9 3 3 4 -13 3 -17 -1 -37 -6 -44 -11 -10 -5 -12
-4 -7 3 4 7 2 12 -3 12 -22 0 -10 -27 17 -41 15 -8 31 -20 35 -27 5 -7 13 -10
18 -7 5 4 7 11 4 16 -4 5 -1 9 4 9 6 0 11 -9 11 -20 0 -27 -13 -25 -62 10 -38
28 -42 29 -54 12 -7 -9 -16 -14 -20 -9 -4 4 -2 7 4 7 7 0 12 5 12 11 0 5 -5 7
-11 3 -8 -4 -9 1 -4 17 5 19 4 21 -4 9 -6 -8 -11 -23 -11 -32 0 -10 -4 -18
-10 -18 -5 0 -10 -7 -10 -15 0 -16 -48 -64 -64 -65 -4 0 -24 -14 -43 -31 -21
-17 -41 -28 -50 -25 -10 4 -13 2 -10 -8 4 -9 -8 -25 -31 -42 -20 -16 -31 -21
-25 -13 7 9 9 20 5 24 -4 5 -2 5 5 1 6 -3 14 -2 17 3 3 5 -1 11 -9 15 -8 3
-15 10 -15 16 0 6 5 8 11 5 5 -4 19 1 30 11 17 16 22 16 29 4 7 -11 10 -12 10
-2 0 7 3 11 8 9 4 -3 13 1 20 9 7 8 11 14 8 14 -2 0 -13 3 -23 6 -15 5 -15 4
-3 -5 16 -11 12 -13 -30 -13 -54 -1 -59 2 -63 35 -2 17 -5 -3 -5 -45 -1 -42
-6 -80 -12 -83 -6 -4 -9 26 -9 84 1 61 5 88 13 85 8 -3 11 84 9 318 -1 177 2
316 6 309 6 -8 20 -10 45 -6 24 5 36 3 36 -4 0 -6 -4 -11 -10 -11 -5 0 -10 -6
-10 -14 0 -19 51 -31 61 -14 9 14 -9 41 -22 32 -5 -3 -9 1 -9 9 0 10 10 14 33
13 26 -1 32 3 32 19 0 11 8 21 18 23 9 2 15 7 13 11 -3 4 45 8 107 9 72 0 103
-2 87 -8 -22 -7 -20 -8 15 -9 26 -1 35 -4 27 -10 -7 -4 -23 -7 -35 -6 -13 1
-15 0 -4 -2 9 -2 17 -13 17 -24 0 -16 7 -19 49 -19 27 0 62 3 79 6 30 6 31 8
29 56 -1 46 10 67 36 68 4 0 7 -212 7 -472z m-523 439 c7 0 10 -4 7 -8 -2 -4
2 -10 8 -13 7 -3 2 -3 -12 0 -14 3 -32 13 -40 21 -13 14 -13 15 5 8 11 -4 25
-8 32 -8z m453 8 c0 -2 -13 -11 -29 -19 -21 -11 -36 -13 -57 -6 -29 10 -29 10
4 5 20 -3 31 -1 27 5 -3 5 0 7 8 4 8 -3 18 -1 22 5 6 11 25 15 25 6z m-373
-31 c-3 -3 -12 -4 -19 -1 -8 3 -5 6 6 6 11 1 17 -2 13 -5z m-24 -41 c-7 -2
-19 -2 -25 0 -7 3 -2 5 12 5 14 0 19 -2 13 -5z m-143 -283 c0 -22 -4 -40 -10
-40 -5 0 -10 18 -10 40 0 22 5 40 10 40 6 0 10 -18 10 -40z m-1 -162 c0 -35
-2 -39 -9 -21 -8 19 -3 63 6 63 2 0 4 -19 3 -42z m441 -219 c0 -5 5 -7 10 -4
13 8 13 -5 0 -25 -8 -13 -13 -11 -32 9 -16 18 -17 21 -4 10 18 -13 19 -12 13
4 -3 9 -2 17 3 17 6 0 10 -5 10 -11z m120 -89 c0 -5 -2 -10 -4 -10 -3 0 -8 5
-11 10 -3 6 -1 10 4 10 6 0 11 -4 11 -10z"/>
<path d="M6760 2665 c-49 -14 -49 -15 -7 -20 15 -2 25 0 22 6 -4 5 0 9 7 9 8
0 15 -12 16 -27 3 -33 -1 -30 46 -38 l39 -8 -5 33 c-3 22 0 34 9 37 12 5 12 7
1 14 -18 12 -75 9 -128 -6z"/>
<path d="M6888 2643 c7 -3 16 -2 19 1 4 3 -2 6 -13 5 -11 0 -14 -3 -6 -6z"/>
<path d="M7130 2290 c0 -27 5 -50 10 -50 6 0 10 23 10 50 0 28 -4 50 -10 50
-5 0 -10 -22 -10 -50z"/>
<path d="M6831 2064 c0 -11 3 -14 6 -6 3 7 2 16 -1 19 -3 4 -6 -2 -5 -13z"/>
<path d="M6714 1992 c2 -4 -14 -6 -37 -5 -46 3 -42 -1 15 -16 32 -8 42 -6 60
9 13 11 18 19 13 20 -6 0 -17 -6 -24 -12 -11 -10 -13 -10 -7 0 5 7 1 12 -9 12
-9 0 -14 -3 -11 -8z"/>
<path d="M6649 1959 c-11 -7 -11 -9 3 -9 9 0 23 -3 32 -6 9 -3 16 -2 16 4 0
14 -35 21 -51 11z"/>
<path d="M3029 6892 c-21 -21 -41 -50 -44 -65 -16 -63 23 -141 82 -166 21 -8
331 -11 1175 -9 l1148 3 36 36 c28 28 37 47 41 81 7 57 -18 113 -61 139 -30
18 -74 19 -1185 19 l-1153 0 -39 -38z"/>
<path d="M3039 6253 c-81 -69 -75 -179 13 -233 33 -20 55 -20 2066 -20 2219 0
2064 -4 2111 56 46 58 35 141 -25 194 l-35 30 -2049 0 -2048 0 -33 -27z"/>
<path d="M3064 5706 c-49 -22 -79 -72 -79 -133 0 -44 5 -56 30 -83 17 -18 38
-36 48 -42 13 -6 714 -10 2059 -9 l2040 0 35 27 c84 64 80 180 -10 234 -31 20
-67 20 -2062 20 -1682 -1 -2035 -3 -2061 -14z"/>
<path d="M3063 5141 c-105 -48 -110 -187 -8 -246 l42 -25 2022 0 c1846 0 2026
1 2057 16 52 25 78 68 79 129 0 65 -37 119 -93 135 -25 7 -690 10 -2047 10
-1951 0 -2011 -1 -2052 -19z"/>
<path d="M3061 4572 c-54 -27 -76 -65 -76 -127 0 -46 4 -58 30 -86 17 -17 44
-37 60 -44 23 -9 253 -11 1000 -8 534 2 980 3 992 3 13 0 41 16 62 36 72 64
63 167 -18 221 l-34 23 -991 0 c-924 0 -993 -1 -1025 -18z"/>
<path d="M3293 4020 l-232 -5 -30 -29 c-56 -54 -64 -134 -20 -190 46 -59 -11
-56 1072 -56 l994 0 34 23 c91 61 88 192 -6 242 -27 14 -117 16 -805 18 -426
1 -879 0 -1007 -3z"/>
<path d="M3038 3160 c-62 -51 -74 -135 -27 -194 46 -59 -10 -56 1071 -56 973
0 994 0 1026 20 94 57 94 188 0 244 -23 14 -132 16 -1030 16 l-1003 0 -37 -30z"/>
</g>
</svg>
