<?xml version="1.0" standalone="no"?>
<!DOCTYPE svg PUBLIC "-//W3C//DTD SVG 20010904//EN"
 "http://www.w3.org/TR/2001/REC-SVG-20010904/DTD/svg10.dtd">
<svg version="1.0" xmlns="http://www.w3.org/2000/svg"
 width="1024.000000pt" height="1024.000000pt" viewBox="0 0 1024.000000 1024.000000"
 preserveAspectRatio="xMidYMid meet">

<g transform="translate(0.000000,1024.000000) scale(0.100000,-0.100000)"
fill="#000000" stroke="none">
<path d="M4603 7794 c7 -8 87 -7 95 0 3 3 -19 6 -48 6 -29 0 -51 -3 -47 -6z"/>
<path d="M4868 7793 c12 -2 30 -2 40 0 9 3 -1 5 -23 4 -22 0 -30 -2 -17 -4z"/>
<path d="M4420 7774 l-65 -13 55 4 c30 2 78 8 105 13 49 9 50 9 10 9 -22 1
-69 -5 -105 -13z"/>
<path d="M4988 7783 c6 -2 18 -2 25 0 6 3 1 5 -13 5 -14 0 -19 -2 -12 -5z"/>
<path d="M5118 7763 c7 -3 16 -2 19 1 4 3 -2 6 -13 5 -11 0 -14 -3 -6 -6z"/>
<path d="M4318 7753 c7 -3 16 -2 19 1 4 3 -2 6 -13 5 -11 0 -14 -3 -6 -6z"/>
<path d="M5208 7743 c7 -3 16 -2 19 1 4 3 -2 6 -13 5 -11 0 -14 -3 -6 -6z"/>
<path d="M5250 7730 c0 -5 7 -7 15 -4 8 4 15 8 15 10 0 2 -7 4 -15 4 -8 0 -15
-4 -15 -10z"/>
<path d="M4188 7723 c6 -2 18 -2 25 0 6 3 1 5 -13 5 -14 0 -19 -2 -12 -5z"/>
<path d="M5287 7723 c-3 -5 9 -9 26 -10 26 -1 28 0 12 7 -26 11 -33 12 -38 3z"/>
<path d="M5369 7702 c11 -8 11 -11 0 -16 -8 -3 -4 -4 9 -2 30 6 70 -15 65 -34
-4 -13 -3 -13 6 0 9 13 14 13 43 -2 18 -9 42 -18 53 -21 11 -3 29 -8 40 -12
11 -3 7 2 -10 11 -16 10 -37 18 -45 19 -8 1 -40 14 -70 28 -60 27 -114 45 -91
29z"/>
<path d="M4015 7660 c-4 -6 -11 -7 -17 -4 -7 4 -8 2 -4 -5 6 -9 11 -9 22 0 14
11 18 19 10 19 -3 0 -8 -5 -11 -10z"/>
<path d="M5519 7607 c5 -5 19 -7 32 -5 20 3 19 5 -9 9 -20 3 -29 2 -23 -4z"/>
<path d="M5605 7590 c-4 -11 -13 -20 -21 -20 -8 0 -13 -3 -12 -7 1 -5 -3 -18
-10 -30 -11 -20 -10 -23 7 -23 22 0 45 32 33 45 -4 4 4 2 17 -5 17 -8 26 -9
34 -1 6 6 7 12 2 12 -6 1 -16 2 -24 3 -22 2 -25 26 -4 26 15 0 16 -2 3 -11
-12 -8 -10 -9 8 -4 15 4 24 1 28 -10 5 -12 9 -13 14 -5 5 9 10 9 14 1 4 -6 -4
-13 -19 -17 -14 -3 -22 -11 -18 -17 4 -7 0 -8 -12 -3 -23 8 -69 -20 -58 -37 7
-12 8 -17 11 -69 2 -26 5 -28 42 -28 29 0 40 -4 40 -15 0 -11 -11 -15 -40 -15
l-40 0 0 -78 c0 -43 -3 -82 -7 -86 -12 -11 -12 -36 0 -36 5 0 8 -3 5 -6 -4 -3
-16 -1 -27 6 -43 22 -19 0 32 -30 28 -17 83 -55 122 -85 38 -29 74 -51 79 -48
5 3 6 1 3 -4 -9 -14 29 -47 44 -37 8 4 10 3 5 -5 -5 -8 15 -35 53 -74 33 -34
68 -72 77 -85 8 -12 20 -20 25 -16 5 3 8 2 7 -3 -3 -11 138 -224 147 -222 4 0
10 -3 13 -7 4 -4 1 -4 -5 0 -18 10 -16 2 5 -34 10 -16 22 -27 27 -22 5 4 5 2
2 -4 -6 -10 62 -188 98 -256 l14 -28 -802 -1 c-1402 -2 -1359 -2 -1197 -9 80
-3 139 -7 131 -8 -38 -5 8 -15 91 -19 116 -5 128 -13 20 -13 -63 0 -82 -3 -82
-14 0 -24 25 -35 90 -39 58 -3 57 -4 -12 -3 -43 1 -78 -2 -78 -6 0 -5 -10 -8
-22 -9 -22 -1 -22 -1 2 -9 21 -7 18 -8 -20 -11 l-45 -2 45 -8 c53 -9 -159 -3
-232 7 -32 4 -48 2 -48 -5 0 -7 -43 -12 -127 -13 -71 -2 425 -5 1100 -8 1202
-5 1229 -5 1243 -24 11 -15 14 -60 14 -197 0 -154 -2 -180 -17 -198 l-18 -21
-1230 0 c-1196 0 -1230 0 -1248 19 -18 17 -19 34 -18 202 2 167 4 186 21 204
16 17 17 24 7 34 -10 10 -8 11 8 6 20 -7 20 -7 0 10 -12 9 -21 11 -23 5 -2 -5
-8 -10 -13 -10 -6 0 -7 6 -3 13 4 6 3 8 -1 4 -15 -13 -15 -39 0 -33 23 8 27
-12 8 -32 -21 -22 -23 -30 -25 -88 -1 -52 -11 -55 -38 -11 -11 17 -23 32 -27
33 -5 0 -20 6 -35 12 -24 10 -26 15 -22 54 3 24 7 51 8 60 4 20 -23 33 -29 15
-3 -6 -4 -558 -3 -1225 l3 -1214 33 -29 32 -29 1355 0 c838 0 1363 4 1379 10
59 22 56 -44 56 1292 0 1204 0 1224 -20 1256 -11 18 -31 38 -45 44 -14 6 -25
15 -25 19 0 10 170 63 270 84 132 28 288 30 426 7 144 -25 217 -49 344 -112
235 -118 418 -306 539 -554 61 -123 95 -240 118 -397 l17 -119 152 0 c129 0
166 -4 250 -25 565 -143 889 -745 700 -1301 -110 -324 -393 -577 -737 -660
-70 -17 -246 -18 -3359 -22 -2393 -2 -3311 0 -3380 8 -52 6 -125 20 -163 31
-37 11 -73 17 -80 13 -6 -4 -9 -3 -4 1 10 11 -91 58 -105 49 -7 -4 -8 -2 -4 4
4 7 -3 16 -18 22 -14 5 -44 23 -67 39 -23 17 -46 28 -52 24 -5 -3 -7 -1 -4 4
9 14 -40 46 -55 37 -7 -4 -8 -3 -4 5 5 7 -11 31 -42 62 -28 27 -52 46 -54 42
-3 -4 -3 -2 -2 4 2 7 -7 25 -20 40 -79 95 -176 292 -192 391 -5 29 -10 39 -15
30 -6 -8 -9 -9 -9 -1 0 6 -3 19 -7 29 -3 10 -2 15 3 12 5 -4 9 66 8 173 -1 98
3 179 7 179 5 0 9 8 9 18 0 40 51 187 96 272 33 65 44 94 36 102 -8 8 -9 4 -6
-13 5 -19 4 -21 -5 -9 -9 12 -11 11 -11 -8 0 -13 -5 -33 -12 -45 -11 -21 -11
-21 -20 -2 -7 17 -7 16 -4 -5 3 -15 -5 -46 -19 -75 -13 -28 -25 -55 -25 -62 0
-7 -6 -24 -12 -39 l-13 -27 -6 24 c-5 17 -7 8 -8 -29 -1 -30 -8 -63 -17 -77
-9 -14 -14 -35 -11 -47 4 -12 1 -28 -5 -35 -7 -9 -7 -13 1 -13 6 0 11 -8 11
-17 0 -15 -2 -16 -10 -3 -8 13 -10 13 -10 -2 0 -9 6 -18 12 -20 9 -3 8 -9 -4
-21 -21 -22 -35 -22 -41 1 -10 42 -18 -63 -9 -115 15 -83 31 -121 42 -103 9
13 10 13 10 0 0 -54 -51 -52 -64 3 -5 20 -13 37 -18 37 -13 0 -10 158 4 162 9
3 9 6 0 12 -7 4 -12 2 -12 -3 0 -6 -18 -11 -40 -11 l-40 0 0 40 0 40 40 0 40
0 0 55 c0 44 -3 53 -15 49 -8 -4 -15 -10 -15 -15 0 -5 -11 -9 -25 -9 -22 0
-25 -4 -25 -40 l0 -40 -60 0 -60 0 0 40 c0 22 -4 40 -10 40 -5 0 -7 7 -3 16 5
13 8 13 15 2 8 -10 9 -10 5 2 -2 8 -9 16 -15 16 -7 1 -19 2 -28 3 -12 1 -15 8
-12 24 3 14 0 24 -7 24 -7 0 -10 -8 -8 -18 3 -9 0 -20 -6 -23 -6 -4 -13 5 -17
21 -4 16 -3 28 3 30 6 2 9 14 6 26 -3 16 -2 18 5 9 7 -11 11 -8 16 13 4 14 4
31 0 37 -4 6 -3 8 2 5 6 -3 10 11 10 31 1 20 4 48 8 62 3 15 0 11 -10 -9 -64
-140 -96 -468 -65 -671 18 -113 46 -229 67 -276 9 -22 18 -46 20 -54 7 -36 46
-110 54 -105 6 3 7 0 4 -8 -3 -8 3 -22 12 -32 10 -10 18 -26 19 -36 2 -17 53
-101 66 -107 3 -1 15 -10 25 -18 10 -9 13 -12 5 -8 -9 4 -12 2 -9 -7 3 -8 11
-13 17 -11 7 1 10 -2 7 -7 -4 -5 16 -36 43 -68 50 -60 120 -129 106 -104 -5
10 -4 12 4 7 6 -4 9 -11 7 -15 -9 -13 51 -64 65 -56 7 5 10 4 6 -2 -6 -10 29
-42 101 -92 28 -20 35 -21 50 -9 15 11 16 11 4 -3 -11 -15 -6 -21 40 -46 109
-62 255 -118 378 -146 162 -38 186 -38 3630 -35 l3365 3 110 32 c188 53 280
94 430 191 324 207 570 580 630 957 20 123 27 324 14 425 -72 587 -477 1060
-1039 1213 -52 14 -117 28 -143 32 -27 4 -50 12 -52 18 -59 199 -149 392 -248
529 -84 118 -206 251 -223 244 -8 -3 -13 0 -11 6 3 15 -122 120 -135 112 -6
-4 -8 -3 -5 3 14 23 -238 159 -403 216 -253 88 -545 108 -828 57 -59 -11 -110
-20 -113 -20 -3 0 -16 21 -29 48 -27 54 -107 182 -115 182 -2 0 -2 -6 1 -14 3
-8 1 -17 -4 -20 -5 -3 -8 6 -6 21 3 30 -23 76 -39 66 -5 -3 -7 -2 -4 4 9 14
-22 55 -35 47 -7 -4 -8 -2 -4 5 9 14 -161 204 -175 195 -5 -3 -8 -1 -7 4 4 12
-85 92 -102 92 -6 0 -8 -5 -5 -10 4 -6 12 -7 18 -3 8 5 8 2 0 -9 -7 -8 -10
-18 -7 -21 4 -4 -4 -4 -16 -2 -29 6 -41 24 -30 46 5 9 6 20 2 24 -4 5 -2 5 5
1 7 -4 9 -14 6 -24 -6 -15 -5 -15 10 -3 15 12 15 15 -7 32 -13 11 -31 19 -39
19 -9 0 -19 5 -23 12 -5 7 -2 9 7 3 8 -4 1 4 -16 18 -16 14 -43 33 -60 42 -19
10 -24 11 -12 2 9 -8 17 -22 17 -31 0 -12 7 -16 21 -14 15 2 23 -3 25 -14 3
-21 0 -22 -28 -7 -33 18 -68 -6 -68 -48 0 -32 -1 -33 -40 -33 -36 0 -40 3 -40
25 0 16 6 25 15 25 8 0 15 4 15 9 0 5 3 18 6 28 4 13 3 15 -4 4 -7 -10 -11 -5
-14 18 -5 32 9 45 33 30 8 -5 19 -9 24 -8 6 0 -1 6 -15 14 -14 8 -19 14 -12
15 47 1 -55 81 -163 126 -31 13 -34 12 -40 -6z m129 -55 c11 -8 17 -15 14 -15
-4 0 -14 -3 -24 -7 -12 -4 -15 -3 -10 5 4 7 2 12 -3 12 -6 0 -11 5 -11 10 0
14 11 12 34 -5z m-34 -14 c0 -17 -18 -21 -24 -6 -3 9 0 15 9 15 8 0 15 -4 15
-9z m75 -37 c-7 -8 -12 -23 -10 -34 3 -13 -1 -17 -11 -13 -18 7 -18 13 1 39 8
12 11 24 7 28 -3 4 1 4 11 1 14 -6 15 -9 2 -21z m15 -14 c0 -5 -5 -10 -11 -10
-5 0 -7 5 -4 10 3 6 8 10 11 10 2 0 4 -4 4 -10z m329 -216 c4 3 8 -1 8 -9 0
-10 -4 -12 -12 -5 -9 8 -14 6 -19 -5 -3 -9 -2 -13 3 -10 5 3 12 1 16 -5 4 -6
10 -8 15 -5 5 3 11 2 14 -3 2 -4 -11 -8 -29 -8 -31 0 -33 3 -33 31 1 39 9 52
20 31 5 -9 13 -14 17 -12z m63 -58 c7 4 8 2 4 -4 -11 -18 -26 -14 -25 6 0 10
3 12 6 4 2 -6 10 -9 15 -6z m-504 -23 c0 -19 -2 -20 -15 -7 -8 7 -21 14 -28
14 -8 0 -16 3 -18 8 -3 4 10 7 28 7 27 0 33 -4 33 -22z m527 -3 c3 -5 -1 -10
-10 -10 -9 0 -13 5 -10 10 3 6 8 10 10 10 2 0 7 -4 10 -10z m-552 -14 c9 -22
-18 -40 -33 -22 -6 9 -9 20 -5 26 9 15 32 12 38 -4z m97 -21 c-7 -9 -15 -13
-19 -10 -3 3 1 10 9 15 21 14 24 12 10 -5z m-79 -9 c-10 -11 -8 -17 6 -25 10
-6 13 -11 7 -11 -21 0 -35 25 -22 38 17 17 23 15 9 -2z m85 -63 c-2 -10 2 -21
8 -25 6 -4 8 -9 6 -12 -3 -2 -18 7 -35 20 -16 14 -23 22 -14 19 10 -4 20 -2
24 4 9 16 14 13 11 -6z m547 2 c4 -8 1 -17 -5 -21 -7 -4 -8 -3 -4 4 4 7 1 12
-9 12 -9 0 -14 -4 -11 -9 7 -11 -21 -9 -29 2 -3 4 -2 5 1 2 4 -2 16 2 28 10
25 18 23 18 29 0z m42 -55 c3 -5 2 -10 -4 -10 -5 0 -13 5 -16 10 -3 6 -2 10 4
10 5 0 13 -4 16 -10z m-441 -78 c3 -5 -1 -9 -9 -9 -8 0 -12 4 -9 9 3 4 7 8 9
8 2 0 6 -4 9 -8z m61 -71 c3 -5 2 -12 -3 -15 -5 -3 -9 1 -9 9 0 17 3 19 12 6z
m-1260 -691 c14 -7 8 -8 -20 -3 -22 3 -42 7 -44 9 -9 8 45 2 64 -6z m133 -7
c-10 -2 -28 -2 -40 0 -13 2 -5 4 17 4 22 1 32 -1 23 -4z m-601 -119 c-3 -3
-12 -4 -19 -1 -8 3 -5 6 6 6 11 1 17 -2 13 -5z m-347 -474 c0 -5 -2 -10 -4
-10 -3 0 -8 5 -11 10 -3 6 -1 10 4 10 6 0 11 -4 11 -10z m109 6 c-2 -2 -26 -6
-53 -9 -30 -3 -43 -1 -35 4 13 8 97 13 88 5z m-136 -170 c-3 -4 -9 -2 -14 5
-13 22 -11 31 5 17 8 -7 12 -17 9 -22z m1261 14 c1213 0 1226 0 1246 -20 19
-19 20 -33 20 -200 0 -167 -1 -181 -20 -200 -20 -20 -33 -20 -1243 -20 -1090
0 -1225 2 -1245 16 -21 15 -22 20 -22 202 0 103 4 194 10 202 6 9 5 19 -3 29
-10 12 -9 13 10 3 16 -9 334 -12 1247 -12z m1245 -634 c20 -18 21 -29 21 -196
0 -155 -2 -181 -17 -199 l-18 -21 -1231 -3 c-1141 -2 -1232 -1 -1248 15 -16
15 -18 37 -17 199 1 145 5 188 17 206 l15 23 1228 -2 c1192 -3 1230 -4 1250
-22z m-5851 -461 c-3 -3 -9 2 -12 12 -6 14 -5 15 5 6 7 -7 10 -15 7 -18z m29
-37 c-3 -7 -5 -2 -5 12 0 14 2 19 5 13 2 -7 2 -19 0 -25z m-40 -86 l1 -77 -8
70 c-6 60 -5 85 3 85 1 0 3 -35 4 -78z m29 41 c-10 -10 -19 5 -10 18 6 11 8
11 12 0 2 -7 1 -15 -2 -18z m38 -34 c-6 -11 -24 -2 -24 11 0 5 7 7 15 4 8 -4
12 -10 9 -15z m5797 -30 c17 -17 19 -34 19 -199 0 -167 -1 -181 -20 -200 -20
-20 -33 -20 -1248 -20 -1224 0 -1229 0 -1247 20 -17 19 -19 38 -16 203 1 100
5 185 8 190 3 5 15 12 27 17 11 5 567 9 1239 9 1194 0 1218 0 1238 -20z
m-5471 -59 c0 -22 -4 -40 -9 -40 -4 0 -6 -12 -3 -26 3 -19 1 -25 -7 -20 -6 4
-11 15 -11 24 0 15 -2 15 -10 2 -7 -10 -10 -11 -10 -2 0 7 7 15 15 18 10 4 13
14 9 30 -7 28 1 54 16 54 5 0 10 -18 10 -40z m-3 -237 c-3 -10 -5 -2 -5 17 0
19 2 27 5 18 2 -10 2 -26 0 -35z m-372 -23 c-4 -13 -2 -20 5 -18 7 2 14 -12
16 -32 l3 -35 -19 37 c-11 20 -17 44 -14 52 9 23 16 19 9 -4z m372 -42 c-3 -8
-6 -5 -6 6 -1 11 2 17 5 13 3 -3 4 -12 1 -19z m-337 -72 c0 -3 -4 -8 -10 -11
-5 -3 -10 -1 -10 4 0 6 5 11 10 11 6 0 10 -2 10 -4z m407 -58 c-3 -8 -6 -5 -6
6 -1 11 2 17 5 13 3 -3 4 -12 1 -19z m28 -23 c-1 -14 -5 -28 -9 -32 -3 -3 0
-13 7 -22 10 -14 10 -14 -5 -3 -15 12 -16 26 -9 75 3 20 19 3 16 -18z m78
-109 c3 -8 -2 -20 -11 -27 -14 -11 -15 -11 -5 0 6 7 9 20 6 27 -3 8 -3 14 0
14 3 0 7 -6 10 -14z m37 -70 c0 -5 -7 -3 -15 4 -8 7 -15 20 -15 28 0 13 3 12
15 -4 8 -10 15 -23 15 -28z m33 -81 c-3 -9 -8 -14 -10 -11 -3 3 -2 9 2 15 9
16 15 13 8 -4z m51 -11 c3 -8 10 -12 16 -9 14 9 25 -24 12 -37 -8 -8 -9 -4 -6
13 4 15 2 19 -3 12 -9 -12 -35 -3 -35 13 1 5 -7 8 -16 6 -15 -2 -15 -1 -2 7
21 15 27 14 34 -5z m-39 -24 c3 -5 1 -10 -4 -10 -6 0 -11 5 -11 10 0 6 2 10 4
10 3 0 8 -4 11 -10z m115 -80 c0 -5 -5 -10 -11 -10 -5 0 -7 5 -4 10 3 6 8 10
11 10 2 0 4 -4 4 -10z"/>
<path d="M5625 7150 c3 -5 11 -10 16 -10 6 0 7 5 4 10 -3 6 -11 10 -16 10 -6
0 -7 -4 -4 -10z"/>
<path d="M6098 5283 c-21 -23 -25 -142 -6 -161 7 -7 40 -12 78 -12 38 0 71 5
78 12 14 14 16 136 3 157 -5 8 -34 15 -72 18 -55 5 -67 2 -81 -14z"/>
<path d="M4000 5275 c-6 -8 -8 -20 -4 -26 4 -8 3 -9 -4 -5 -9 5 -12 -9 -12
-47 0 -93 -42 -87 577 -87 298 0 549 3 558 6 27 11 48 62 40 103 -14 76 27 71
-590 71 -472 0 -554 -2 -565 -15z"/>
<path d="M6102 4674 c-19 -13 -22 -24 -22 -88 0 -53 4 -77 15 -86 21 -17 143
-9 156 11 5 7 9 44 9 81 0 58 -3 69 -22 82 -12 9 -43 16 -68 16 -25 0 -56 -7
-68 -16z"/>
<path d="M3996 4661 c-12 -13 -16 -34 -15 -73 3 -98 -48 -90 579 -91 l551 0
22 22 c17 17 22 33 21 73 -1 94 37 88 -594 88 -521 0 -548 -1 -564 -19z"/>
<path d="M6098 4069 c-15 -8 -18 -24 -18 -89 0 -66 3 -81 18 -88 24 -12 131
-6 148 9 16 13 20 134 4 159 -11 17 -126 24 -152 9z"/>
<path d="M3997 4052 c-24 -27 -24 -130 1 -148 14 -11 126 -13 568 -14 548 0
551 0 570 21 13 15 19 36 19 69 0 33 -6 54 -19 69 -19 21 -23 21 -571 21 -522
0 -553 -1 -568 -18z"/>
<path d="M3850 7588 c0 -6 -3 -9 -6 -5 -10 9 -66 -22 -59 -33 4 -6 8 -10 11
-10 3 0 2 5 -1 10 -3 6 0 11 7 12 23 2 32 5 51 13 18 8 23 25 7 25 -5 0 -10
-5 -10 -12z"/>
<path d="M5345 7590 c3 -5 8 -10 11 -10 2 0 4 5 4 10 0 6 -5 10 -11 10 -5 0
-7 -4 -4 -10z"/>
<path d="M5366 7551 c-3 -5 1 -14 8 -20 16 -13 32 2 21 19 -8 12 -22 13 -29 1z"/>
<path d="M5826 7475 c-3 -9 0 -15 9 -15 16 0 20 16 6 24 -5 3 -11 -1 -15 -9z"/>
<path d="M3602 7447 c-37 -27 -41 -33 -28 -43 9 -6 14 -14 11 -17 -3 -4 -2 -4
3 -1 4 3 7 14 7 25 0 11 14 30 30 44 43 35 28 30 -23 -8z"/>
<path d="M5423 7442 c-19 -3 -23 -10 -23 -42 l0 -39 43 1 c23 1 34 3 25 5 -11
3 -18 16 -20 41 -3 32 -6 37 -25 34z"/>
<path d="M5320 7400 c0 -33 3 -40 20 -40 17 0 20 7 20 40 0 33 -3 40 -20 40
-17 0 -20 -7 -20 -40z"/>
<path d="M4720 7400 c0 -6 -39 -9 -102 -7 -57 2 -87 1 -68 -2 l35 -5 -35 -7
c-27 -5 -24 -6 15 -3 28 2 102 5 165 6 74 1 94 3 55 6 -44 3 -55 6 -40 12 19
8 19 9 -2 9 -13 1 -23 -4 -23 -9z"/>
<path d="M3530 7396 c0 -2 8 -10 18 -17 15 -13 16 -12 3 4 -13 16 -21 21 -21
13z"/>
<path d="M4870 7391 c0 -7 5 -9 10 -6 6 4 16 2 23 -3 7 -5 36 -12 66 -15 l55
-7 -37 20 c-39 21 -62 27 -37 9 15 -11 1 -9 -57 7 -15 4 -23 2 -23 -5z"/>
<path d="M4420 7360 l-25 -8 25 0 c14 0 39 4 55 8 l30 8 -30 0 c-16 0 -41 -4
-55 -8z"/>
<path d="M5158 7365 c-3 -3 -16 -8 -28 -10 -12 -2 -25 -7 -29 -11 -3 -4 2 -4
12 -1 9 4 17 2 17 -3 0 -6 6 -10 14 -10 22 0 174 -54 264 -93 46 -20 81 -33
78 -29 -2 4 4 8 14 8 14 0 16 -4 9 -12 -12 -15 3 -26 41 -30 24 -3 26 0 28 39
2 27 -1 37 -6 29 -8 -11 -10 -11 -15 2 -4 9 -1 16 6 16 17 0 -14 20 -32 20 -8
0 -11 -3 -8 -6 8 -8 -36 -44 -54 -44 -7 0 -5 6 7 15 18 13 17 14 -13 10 -22
-2 -30 0 -27 9 6 15 -33 18 -58 5 -10 -5 -18 -6 -17 -2 1 4 -1 16 -5 25 -6 14
-11 15 -26 5 -11 -6 -23 -8 -27 -4 -4 5 -1 12 7 17 21 13 3 12 -21 -1 -19 -10
-20 -9 -9 13 10 19 10 21 -1 11 -7 -7 -29 -13 -48 -12 -30 0 -33 2 -16 10 17
8 15 8 -7 4 -17 -3 -28 -1 -28 5 0 6 -4 8 -10 5 -5 -3 -10 -2 -10 4 0 5 6 12
13 14 6 3 7 6 1 6 -6 1 -13 -1 -16 -4z"/>
<path d="M5509 7363 c-1 -5 -1 -11 0 -15 0 -4 -6 -5 -14 -2 -8 4 -15 1 -15 -6
0 -6 -5 -8 -12 -4 -10 6 -10 5 -1 -8 7 -8 10 -17 8 -20 -3 -3 7 -4 22 -2 24 4
25 3 8 -5 -17 -8 -17 -10 -3 -10 19 -1 33 15 20 23 -5 3 -8 17 -7 31 3 22 -3
38 -6 18z"/>
<path d="M5048 7353 c6 -2 18 -2 25 0 6 3 1 5 -13 5 -14 0 -19 -2 -12 -5z"/>
<path d="M5316 7336 c10 -8 21 -12 24 -10 5 6 -21 24 -34 24 -6 0 -1 -6 10
-14z"/>
<path d="M4200 7303 c0 -16 16 -17 25 -3 4 6 9 9 13 6 4 -2 16 0 27 5 14 6 8
7 -22 6 -27 -1 -43 -7 -43 -14z"/>
<path d="M6011 7304 c6 -7 16 -11 21 -8 11 7 3 17 -18 20 -12 2 -13 -1 -3 -12z"/>
<path d="M3381 7269 c-13 -11 -22 -22 -19 -24 2 -3 15 6 28 20 28 30 24 32 -9
4z"/>
<path d="M4165 7280 c-3 -6 1 -7 9 -4 18 7 21 14 7 14 -6 0 -13 -4 -16 -10z"/>
<path d="M5460 7270 c-11 -8 -7 -9 15 -4 37 8 45 14 19 14 -10 0 -26 -5 -34
-10z"/>
<path d="M4097 7259 c7 -7 15 -10 18 -7 3 3 -2 9 -12 12 -14 6 -15 5 -6 -5z"/>
<path d="M3330 7225 c-11 -13 -10 -14 4 -9 9 3 16 10 16 15 0 13 -6 11 -20 -6z"/>
<path d="M4026 7228 c5 -8 2 -9 -10 -5 -9 4 -15 3 -12 -2 7 -11 -103 -69 -122
-65 -7 1 -8 0 -2 -3 5 -2 8 -9 5 -13 -6 -9 143 66 158 80 5 4 1 10 -8 14 -11
4 -14 2 -9 -6z"/>
<path d="M3260 7155 c-7 -8 -8 -15 -2 -15 5 0 15 7 22 15 7 8 8 15 2 15 -5 0
-15 -7 -22 -15z"/>
<path d="M3196 7078 c-25 -29 -69 -86 -97 -127 -43 -60 -47 -70 -26 -56 15 9
24 21 21 26 -3 5 0 9 5 9 6 0 11 7 11 15 0 7 8 18 18 24 9 5 16 13 16 18 -1 4
2 7 6 6 4 -1 7 5 6 15 0 10 5 16 14 14 8 -2 12 -1 8 3 -9 9 52 76 63 69 5 -3
6 3 2 12 -4 12 -3 15 5 10 7 -4 12 -2 12 3 0 23 -20 9 -64 -41z"/>
<path d="M3784 7093 c22 -26 27 -28 24 -10 -2 6 3 11 10 9 8 -1 11 2 7 8 -5 8
-11 8 -19 1 -9 -7 -17 -7 -26 2 -8 6 -6 2 4 -10z"/>
<path d="M3763 7063 c4 -3 1 -13 -6 -22 -11 -14 -10 -14 6 -2 20 15 22 31 5
31 -6 0 -8 -3 -5 -7z"/>
<path d="M3705 7005 c-16 -14 -25 -25 -19 -25 6 0 21 11 34 25 30 32 24 31
-15 0z"/>
<path d="M3635 6950 c-3 -5 -2 -10 4 -10 5 0 13 5 16 10 3 6 2 10 -4 10 -5 0
-13 -4 -16 -10z"/>
<path d="M3606 6913 c-6 -14 -5 -15 5 -6 7 7 10 15 7 18 -3 3 -9 -2 -12 -12z"/>
<path d="M3543 6845 c0 -8 4 -12 9 -9 5 3 6 10 3 15 -9 13 -12 11 -12 -6z"/>
<path d="M3015 6824 c-9 -15 -12 -23 -6 -20 11 7 35 46 28 46 -3 0 -12 -12
-22 -26z"/>
<path d="M3515 6818 c-6 -13 -16 -22 -23 -20 -7 1 -12 -7 -12 -19 0 -14 -5
-19 -15 -16 -17 7 -30 -9 -15 -18 6 -4 -2 -21 -20 -43 -16 -20 -27 -38 -24
-41 3 -3 9 1 14 9 5 8 31 46 60 84 28 37 50 72 48 77 -2 5 -8 -1 -13 -13z"/>
<path d="M2982 6765 c-9 -18 -8 -26 1 -31 7 -4 9 -4 5 1 -4 4 -3 16 3 27 6 11
9 22 6 24 -2 2 -9 -7 -15 -21z"/>
<path d="M2933 6673 c-13 -32 -27 -62 -31 -67 -3 -5 0 -6 5 -3 6 4 16 20 23
37 7 16 17 27 23 23 5 -3 7 -1 3 5 -3 6 -2 22 4 36 18 49 -1 26 -27 -31z"/>
<path d="M3377 6633 c4 -9 2 -14 -3 -10 -5 3 -10 -3 -10 -14 0 -24 0 -24 19 5
14 20 14 25 2 30 -10 3 -12 0 -8 -11z"/>
<path d="M2886 6573 c-6 -14 -5 -15 5 -6 7 7 10 15 7 18 -3 3 -9 -2 -12 -12z"/>
<path d="M3320 6540 c0 -5 5 -10 11 -10 5 0 7 5 4 10 -3 6 -8 10 -11 10 -2 0
-4 -4 -4 -10z"/>
<path d="M2866 6518 c-3 -13 -2 -26 2 -30 4 -4 8 6 9 23 3 35 -2 38 -11 7z"/>
<path d="M3301 6484 c-12 -20 -20 -41 -19 -46 2 -5 13 11 26 36 26 55 22 60
-7 10z"/>
<path d="M2748 6473 c6 -2 18 -2 25 0 6 3 1 5 -13 5 -14 0 -19 -2 -12 -5z"/>
<path d="M2628 6463 c12 -2 32 -2 45 0 12 2 2 4 -23 4 -25 0 -35 -2 -22 -4z"/>
<path d="M2535 6451 c-25 -5 -27 -8 -12 -14 27 -10 34 -9 41 8 3 8 4 14 3 14
-1 -1 -15 -4 -32 -8z"/>
<path d="M2478 6433 c7 -3 16 -2 19 1 4 3 -2 6 -13 5 -11 0 -14 -3 -6 -6z"/>
<path d="M2375 6405 c-25 -12 -26 -14 -5 -9 28 7 60 23 45 23 -5 0 -23 -6 -40
-14z"/>
<path d="M3220 6304 c0 -8 -4 -12 -10 -9 -5 3 -7 0 -4 -8 2 -7 0 -27 -6 -43
-6 -16 -7 -24 -2 -19 16 18 42 95 32 95 -6 0 -10 -7 -10 -16z"/>
<path d="M2008 6205 c-21 -18 -24 -25 -13 -29 8 -3 14 -1 12 4 -1 5 7 15 18
23 11 9 18 18 15 20 -3 3 -17 -5 -32 -18z"/>
<path d="M3187 6203 c-3 -4 -8 -26 -11 -48 l-6 -40 14 45 c14 41 15 63 3 43z"/>
<path d="M3795 6193 c-33 -8 -40 -22 -9 -18 16 2 32 4 37 4 4 1 7 6 7 11 0 10
-3 11 -35 3z"/>
<path d="M3970 6190 c8 -5 24 -10 35 -10 17 0 17 2 5 10 -8 5 -24 10 -35 10
-17 0 -17 -2 -5 -10z"/>
<path d="M4123 6183 c9 -2 23 -2 30 0 6 3 -1 5 -18 5 -16 0 -22 -2 -12 -5z"/>
<path d="M3726 6162 c-2 -4 0 -14 6 -22 8 -12 9 -11 4 4 -5 14 -2 17 9 12 9
-3 13 -2 10 4 -7 12 -22 13 -29 2z"/>
<path d="M1933 6134 l-28 -25 33 22 c17 13 32 24 32 26 0 8 -11 1 -37 -23z"/>
<path d="M3705 6129 c-4 -6 -5 -12 -2 -15 2 -3 7 2 10 11 7 17 1 20 -8 4z"/>
<path d="M1860 6067 c-19 -22 -26 -35 -15 -28 21 13 60 60 53 65 -1 1 -19 -15
-38 -37z"/>
<path d="M3161 6084 c0 -11 3 -14 6 -6 3 7 2 16 -1 19 -3 4 -6 -2 -5 -13z"/>
<path d="M4195 6085 c24 -8 125 -11 125 -3 0 4 -30 8 -67 7 -38 0 -63 -2 -58
-4z"/>
<path d="M4408 6073 c7 -3 16 -2 19 1 4 3 -2 6 -13 5 -11 0 -14 -3 -6 -6z"/>
<path d="M2687 6048 c-7 -4 33 -8 88 -8 55 0 118 -2 140 -5 38 -5 38 -4 10 5
-36 12 -222 18 -238 8z"/>
<path d="M4298 6053 c7 -3 16 -2 19 1 4 3 -2 6 -13 5 -11 0 -14 -3 -6 -6z"/>
<path d="M2617 6038 c-10 -5 -25 -8 -35 -7 -23 4 -62 -10 -62 -21 0 -5 8 -6
17 -3 9 4 42 12 72 18 33 6 50 13 40 17 -8 3 -23 2 -32 -4z"/>
<path d="M2968 6023 c7 -3 16 -2 19 1 4 3 -2 6 -13 5 -11 0 -14 -3 -6 -6z"/>
<path d="M3015 6010 c27 -12 43 -12 25 0 -8 5 -22 9 -30 9 -10 0 -8 -3 5 -9z"/>
<path d="M3075 5990 c27 -12 43 -12 25 0 -8 5 -22 9 -30 9 -10 0 -8 -3 5 -9z"/>
<path d="M2450 5980 c-8 -5 -10 -10 -5 -10 6 0 17 5 25 10 8 5 11 10 5 10 -5
0 -17 -5 -25 -10z"/>
<path d="M3132 5981 c-11 -7 -11 -9 2 -14 10 -4 16 -1 16 8 0 17 -1 17 -18 6z"/>
<path d="M1769 5953 c-7 -10 -9 -15 -5 -11 5 4 16 2 25 -5 14 -10 14 -10 4 4
-7 9 -10 19 -6 22 3 4 4 7 1 7 -3 0 -12 -8 -19 -17z"/>
<path d="M2362 5945 c-23 -12 -39 -24 -36 -28 4 -4 3 -7 -3 -7 -6 0 -30 -17
-53 -37 -24 -21 -47 -37 -52 -35 -4 1 -8 -5 -8 -14 0 -8 -5 -12 -10 -9 -6 4
-9 1 -8 -7 2 -7 -5 -12 -14 -12 -10 1 -15 -2 -12 -8 8 -13 -16 -39 -30 -31 -6
3 -8 3 -4 -2 4 -4 0 -14 -10 -21 -9 -7 -13 -14 -9 -14 4 0 47 37 95 83 77 73
162 138 195 150 7 2 10 6 7 8 -3 3 -24 -5 -48 -16z"/>
<path d="M1740 5910 c-6 -11 -8 -20 -6 -20 3 0 10 9 16 20 6 11 8 20 6 20 -3
0 -10 -9 -16 -20z"/>
<path d="M4005 5887 c-11 -9 -15 -19 -10 -27 5 -9 4 -11 -3 -6 -9 5 -12 -9
-12 -48 0 -43 5 -61 20 -76 20 -20 30 -20 564 -18 509 3 545 4 564 21 43 39
34 134 -14 156 -39 18 -1084 16 -1109 -2z m1135 -47 c0 -5 -5 -10 -11 -10 -5
0 -7 5 -4 10 3 6 8 10 11 10 2 0 4 -4 4 -10z"/>
<path d="M6092 5888 c-7 -7 -12 -41 -12 -85 0 -61 3 -74 19 -83 27 -14 134
-13 149 2 15 15 16 132 2 159 -9 16 -22 19 -78 19 -40 0 -73 -5 -80 -12z"/>
<path d="M1690 5825 c-5 -14 -17 -39 -25 -55 -9 -17 -11 -30 -6 -30 5 0 11 8
14 18 3 9 12 34 21 55 9 20 14 37 11 37 -3 0 -10 -11 -15 -25z"/>
<path d="M1636 5713 c-6 -14 -5 -15 5 -6 7 7 10 15 7 18 -3 3 -9 -2 -12 -12z"/>
<path d="M2086 5678 c3 -5 10 -6 15 -3 13 9 11 12 -6 12 -8 0 -12 -4 -9 -9z"/>
<path d="M1611 5649 c-14 -40 -14 -49 0 -49 5 0 7 5 4 10 -4 6 0 24 9 40 8 17
11 30 6 30 -4 0 -13 -14 -19 -31z"/>
<path d="M2069 5643 c-38 -46 -43 -54 -28 -48 8 3 22 19 31 35 19 34 18 38 -3
13z"/>
<path d="M2011 5584 c0 -11 3 -14 6 -6 3 7 2 16 -1 19 -3 4 -6 -2 -5 -13z"/>
<path d="M2021 5559 c-7 -12 -10 -23 -8 -26 3 -3 11 5 17 17 15 28 8 35 -9 9z"/>
<path d="M1535 5500 c-3 -5 -2 -10 4 -10 5 0 13 5 16 10 3 6 2 10 -4 10 -5 0
-13 -4 -16 -10z"/>
<path d="M1466 5481 c-3 -5 0 -11 7 -14 8 -3 14 1 14 9 0 16 -13 19 -21 5z"/>
<path d="M1980 5456 c-5 -15 -10 -35 -9 -44 0 -9 7 1 15 22 8 22 12 41 9 44
-2 3 -9 -7 -15 -22z"/>
<path d="M1392 5461 c-9 -5 -4 -8 16 -7 17 1 28 4 25 9 -6 9 -25 9 -41 -2z"/>
<path d="M1330 5435 c-14 -8 -20 -14 -14 -15 5 0 19 7 30 15 24 18 16 19 -16
0z"/>
<path d="M1290 5410 c8 -5 20 -10 25 -10 6 0 3 5 -5 10 -8 5 -19 10 -25 10 -5
0 -3 -5 5 -10z"/>
<path d="M1220 5380 c-9 -6 -10 -10 -3 -10 6 0 15 5 18 10 8 12 4 12 -15 0z"/>
<path d="M1146 5342 c-2 -4 4 -8 14 -8 10 0 16 4 14 8 -3 4 -9 8 -14 8 -5 0
-11 -4 -14 -8z"/>
<path d="M1946 5321 c-4 -7 -5 -15 -2 -18 9 -9 19 4 14 18 -4 11 -6 11 -12 0z"/>
<path d="M1095 5310 c-3 -6 1 -7 9 -4 18 7 21 14 7 14 -6 0 -13 -4 -16 -10z"/>
<path d="M1943 5240 c0 -25 2 -35 4 -22 2 12 2 32 0 45 -2 12 -4 2 -4 -23z"/>
<path d="M1003 5235 c-10 -11 -9 -13 6 -12 11 1 17 7 14 14 -6 16 -5 16 -20
-2z"/>
<path d="M895 5140 c-44 -44 -75 -80 -70 -80 6 0 3 -5 -5 -10 -8 -5 -10 -10
-4 -10 7 0 20 12 29 27 26 39 93 104 97 94 2 -4 10 7 19 25 9 19 16 34 15 34
-1 0 -37 -36 -81 -80z"/>
<path d="M2603 5167 c-1 -11 -1 -18 0 -16 2 2 8 11 15 20 9 12 9 16 -1 16 -7
0 -14 -9 -14 -20z"/>
<path d="M3168 5183 c204 -2 372 -7 372 -11 0 -4 -78 -7 -172 -6 -169 1 -170
0 -48 -6 l125 -6 -121 -2 c-92 -1 -124 -6 -133 -16 -7 -8 -26 -18 -42 -21 -25
-6 -29 -11 -29 -41 l0 -34 -181 0 c-99 0 -188 4 -198 10 -14 7 -22 3 -39 -20
-12 -16 -19 -35 -16 -43 3 -8 -2 -17 -10 -20 -11 -4 -16 -18 -15 -39 1 -27 2
-29 6 -8 11 62 21 33 22 -61 1 -124 -8 -197 -20 -178 -6 9 -9 10 -9 2 0 -21
12 -43 21 -37 5 3 9 1 9 -5 0 -5 -6 -12 -12 -15 -9 -3 -8 -9 6 -20 18 -14 18
-16 0 -33 -17 -17 -18 -17 -11 0 8 21 -32 67 -59 67 -12 0 -14 3 -6 13 9 10 6
17 -8 30 -21 18 -28 43 -9 31 13 -8 29 13 29 40 0 13 -5 17 -18 14 -36 -10
-42 15 -42 185 0 113 4 167 12 175 9 9 9 15 -1 25 -10 10 -11 8 -5 -7 5 -13 4
-17 -4 -12 -9 5 -12 -78 -12 -341 -1 -191 -2 -525 -3 -741 l-2 -394 28 -24 28
-24 473 0 c354 0 475 3 484 12 17 17 16 123 -2 137 -10 9 -122 12 -409 11
-239 0 -405 4 -421 10 l-26 10 0 179 c0 168 1 181 19 191 13 6 164 10 424 10
348 0 406 2 417 15 18 21 8 124 -13 140 -19 14 -773 15 -795 1 -8 -5 -22 2
-38 19 -20 22 -24 33 -18 59 3 17 8 34 11 39 2 4 192 7 422 7 311 0 420 3 429
12 7 7 12 31 12 55 0 34 -4 43 -17 44 -11 0 -13 3 -5 6 8 3 5 11 -12 24 -23
18 -45 19 -404 19 -223 0 -391 4 -406 10 l-26 10 0 194 c0 168 2 195 16 200 9
3 200 6 424 6 462 0 430 -6 430 80 0 86 28 80 -398 78 l-377 -3 373 -2z m368
-70 c-8 -15 -15 -25 -16 -21 0 12 23 58 27 54 3 -2 -2 -17 -11 -33z m-211 10
c-22 -3 -43 -10 -47 -16 -6 -9 -8 -9 -8 1 0 19 -40 14 -41 -5 0 -14 -2 -15 -6
-3 -3 8 -11 18 -17 22 -6 4 27 7 74 6 47 -1 67 -3 45 -5z m231 -37 c0 -13 -5
-22 -10 -18 -5 3 -7 -2 -3 -11 3 -10 2 -17 -3 -17 -13 0 -13 13 2 45 14 31 16
31 14 1z m-316 -16 c0 -5 -9 -10 -20 -10 -11 0 -20 5 -20 10 0 6 9 10 20 10
11 0 20 -4 20 -10z m-515 -460 c19 -8 19 -9 -2 -9 -12 -1 -25 4 -28 9 -7 12 2
12 30 0z m-65 -35 c0 -5 -5 -3 -10 5 -5 8 -10 20 -10 25 0 6 5 3 10 -5 5 -8
10 -19 10 -25z m251 18 c-11 -4 -11 -7 0 -13 8 -5 -5 -11 -34 -15 -25 -4 -48
-13 -51 -21 -9 -22 -29 -16 -23 7 8 32 -32 46 -74 25 -39 -20 -44 -20 -27 -2
8 8 23 16 34 19 26 7 192 7 175 0z m-123 -22 c9 -5 2 -8 -20 -9 -23 -1 -28 2
-18 8 18 12 22 12 38 1z m-122 -116 c1 -14 -2 -22 -7 -19 -11 6 -12 44 -1 44
4 0 8 -11 8 -25z m587 18 c-7 -2 -19 -2 -25 0 -7 3 -2 5 12 5 14 0 19 -2 13
-5z m282 -3 c8 -13 -5 -13 -25 0 -13 8 -13 10 2 10 9 0 20 -4 23 -10z m-836
-30 c-13 -16 -25 -28 -27 -25 -7 7 27 55 39 55 5 0 0 -13 -12 -30z m254 23
c-7 -2 -19 -2 -25 0 -7 3 -2 5 12 5 14 0 19 -2 13 -5z m244 1 c-3 -3 -12 -4
-19 -1 -8 3 -5 6 6 6 11 1 17 -2 13 -5z m-541 -67 c-3 -11 -1 -28 4 -37 6 -11
5 -17 -3 -17 -8 0 -12 16 -12 43 0 23 4 40 8 37 5 -3 6 -14 3 -26z m55 -68
c10 -6 7 -8 -9 -6 -15 1 -22 8 -22 22 0 15 2 17 9 6 5 -7 15 -17 22 -22z m836
-41 c-3 -7 -5 -2 -5 12 0 14 2 19 5 13 2 -7 2 -19 0 -25z m-4 -71 c3 -8 -1
-14 -8 -14 -7 0 -11 6 -8 14 3 7 6 13 8 13 2 0 5 -6 8 -13z m-755 -24 c-10 -2
-28 -2 -40 0 -13 2 -5 4 17 4 22 1 32 -1 23 -4z m-101 -255 c-2 -13 -4 -3 -4
22 0 25 2 35 4 23 2 -13 2 -33 0 -45z m-12 -128 c3 -5 1 -10 -4 -10 -6 0 -11
5 -11 10 0 6 2 10 4 10 3 0 8 -4 11 -10z m19 -36 c3 -8 2 -12 -4 -9 -6 3 -10
10 -10 16 0 14 7 11 14 -7z"/>
<path d="M6682 5178 c-15 -15 -16 -102 -2 -129 10 -18 25 -19 338 -19 254 0
332 -3 346 -13 16 -12 18 -32 18 -190 1 -128 -3 -181 -12 -192 -11 -13 -59
-15 -340 -15 -375 0 -360 3 -360 -86 1 -88 -18 -84 357 -84 307 0 331 -1 346
-18 19 -21 21 -45 7 -73 -10 -18 -25 -19 -345 -19 -381 0 -365 3 -365 -81 0
-95 -25 -89 354 -89 257 0 336 -3 344 -13 16 -19 19 -354 3 -370 -9 -9 -98
-12 -342 -14 -241 -1 -334 -5 -344 -13 -18 -15 -20 -121 -3 -138 17 -17 796
-17 819 1 39 30 39 35 39 781 l0 724 -26 31 -26 31 -397 0 c-295 0 -400 -3
-409 -12z"/>
<path d="M1785 5130 c-28 -7 -27 -8 13 -9 23 0 42 4 42 9 0 11 -11 11 -55 0z"/>
<path d="M1665 5110 c-4 -6 6 -7 27 -3 44 8 48 13 10 13 -17 0 -34 -4 -37 -10z"/>
<path d="M1594 5091 c3 -5 15 -7 26 -4 28 7 25 13 -6 13 -14 0 -23 -4 -20 -9z"/>
<path d="M1540 5073 c-8 -3 -35 -15 -60 -26 -25 -12 -52 -20 -60 -19 -12 2
-13 1 -1 -6 9 -7 33 -1 75 18 33 15 68 30 76 33 13 5 13 5 0 5 -8 0 -22 -2
-30 -5z"/>
<path d="M770 4998 c-15 -21 -17 -28 -6 -19 16 13 41 51 33 51 -2 0 -14 -15
-27 -32z"/>
<path d="M1365 5020 c-3 -6 1 -7 9 -4 18 7 21 14 7 14 -6 0 -13 -4 -16 -10z"/>
<path d="M1395 5000 c-3 -6 1 -7 9 -4 18 7 21 14 7 14 -6 0 -13 -4 -16 -10z"/>
<path d="M695 4891 c-43 -67 -61 -106 -30 -65 13 16 14 16 9 2 -8 -22 12 -24
20 -2 8 22 8 26 -4 19 -17 -11 -11 11 10 35 11 13 20 26 20 30 0 3 9 16 20 28
12 12 16 22 11 22 -6 0 -31 -31 -56 -69z"/>
<path d="M1275 4940 c3 -14 -10 -31 -41 -56 -24 -20 -42 -39 -39 -42 2 -3 24
13 47 34 24 22 56 48 71 59 25 19 26 21 8 22 -11 1 -20 -3 -18 -9 1 -6 -4 -13
-11 -15 -8 -3 -10 1 -6 11 3 9 1 16 -4 16 -6 0 -9 -9 -7 -20z"/>
<path d="M1210 4945 c0 -7 30 -13 34 -7 3 4 -4 9 -15 9 -10 1 -19 0 -19 -2z"/>
<path d="M7101 4896 c-7 -9 -11 -42 -9 -88 l3 -73 73 -3 c46 -2 79 2 88 9 18
15 19 140 2 157 -17 17 -142 16 -157 -2z"/>
<path d="M625 4770 c-9 -17 -13 -35 -10 -39 3 -5 1 -11 -4 -13 -16 -5 -42 -76
-31 -83 10 -6 14 7 11 33 -1 6 2 12 7 12 9 0 35 46 36 65 1 6 7 20 14 33 7 13
9 22 3 22 -6 0 -18 -14 -26 -30z"/>
<path d="M1105 4750 c-4 -6 -10 -8 -15 -5 -4 3 -6 -5 -2 -17 4 -16 2 -19 -8
-13 -9 6 -11 4 -5 -5 6 -10 12 -8 27 9 17 22 24 41 14 41 -3 0 -8 -5 -11 -10z"/>
<path d="M2641 4734 c0 -11 3 -14 6 -6 3 7 2 16 -1 19 -3 4 -6 -2 -5 -13z"/>
<path d="M2661 4734 c0 -11 3 -14 6 -6 3 7 2 16 -1 19 -3 4 -6 -2 -5 -13z"/>
<path d="M2641 4680 c0 -8 4 -24 9 -35 5 -13 9 -14 9 -5 0 8 -4 24 -9 35 -5
13 -9 14 -9 5z"/>
<path d="M3535 4600 c3 -5 11 -10 16 -10 6 0 7 5 4 10 -3 6 -11 10 -16 10 -6
0 -7 -4 -4 -10z"/>
<path d="M770 4466 c0 -8 5 -18 10 -21 6 -3 10 1 10 9 0 8 -4 18 -10 21 -5 3
-10 -1 -10 -9z"/>
<path d="M545 4430 c-3 -5 -1 -10 4 -10 6 0 11 5 11 10 0 6 -2 10 -4 10 -3 0
-8 -4 -11 -10z"/>
<path d="M730 4421 c0 -6 5 -13 10 -16 6 -3 10 1 10 9 0 9 -4 16 -10 16 -5 0
-10 -4 -10 -9z"/>
<path d="M891 4414 c0 -11 3 -14 6 -6 3 7 2 16 -1 19 -3 4 -6 -2 -5 -13z"/>
<path d="M640 4335 c0 -8 7 -15 15 -15 8 0 15 4 15 9 0 5 -7 11 -15 15 -9 3
-15 0 -15 -9z"/>
<path d="M2831 4044 c-17 -12 -21 -26 -21 -65 0 -96 -29 -89 379 -89 308 0
360 2 371 15 17 21 6 126 -14 141 -11 8 -120 11 -355 12 -283 0 -342 -2 -360
-14z"/>
<path d="M7102 4048 c-7 -7 -12 -40 -12 -78 0 -38 5 -71 12 -78 7 -7 40 -12
80 -12 56 0 69 3 78 19 14 27 13 134 -2 149 -16 16 -140 16 -156 0z"/>
</g>
</svg>
