<?xml version="1.0" standalone="no"?>
<!DOCTYPE svg PUBLIC "-//W3C//DTD SVG 20010904//EN"
 "http://www.w3.org/TR/2001/REC-SVG-20010904/DTD/svg10.dtd">
<svg version="1.0" xmlns="http://www.w3.org/2000/svg"
 width="1024.000000pt" height="1024.000000pt" viewBox="0 0 1024.000000 1024.000000"
 preserveAspectRatio="xMidYMid meet">

<g transform="translate(0.000000,1024.000000) scale(0.100000,-0.100000)"
fill="#000000" stroke="none">
<path d="M5855 7191 c-77 -47 -95 -95 -95 -256 l0 -125 -1002 0 c-1078 0
-1080 0 -1187 -52 -74 -36 -153 -118 -192 -201 l-34 -72 -3 -927 -2 -927 30
-34 c35 -40 72 -51 115 -33 64 27 60 -38 65 955 5 904 5 906 27 946 11 22 34
52 50 67 64 61 7 58 1116 58 l1015 0 4 -127 c5 -144 15 -174 75 -220 l36 -28
206 -5 206 -5 5 -150 c6 -168 15 -198 73 -234 31 -19 50 -21 181 -21 l146 0 0
-580 c0 -625 0 -621 52 -647 50 -26 94 -19 129 18 l29 31 0 637 0 637 -27 42
c-41 63 -69 72 -222 72 -72 0 -131 3 -131 8 0 4 29 45 65 92 36 46 65 88 65
92 0 4 136 8 303 8 294 0 303 1 341 23 25 14 48 39 63 67 l24 44 -3 381 -3
382 -27 35 c-54 71 -19 68 -780 68 -647 0 -685 -1 -713 -19z m1315 -481 l0
-290 -595 0 -595 0 0 290 0 290 595 0 595 0 0 -290z"/>
<path d="M5020 6154 c-263 -39 -466 -151 -622 -344 -55 -68 -98 -145 -138
-249 l-37 -94 -45 -12 c-70 -17 -123 -67 -146 -134 -8 -21 -12 -105 -12 -221
0 -186 0 -188 28 -241 32 -61 91 -99 154 -99 30 0 38 -4 38 -18 0 -28 95 -212
139 -269 l40 -52 -57 -16 c-261 -76 -524 -299 -651 -552 -64 -128 -101 -267
-101 -376 1 -103 67 -186 164 -207 36 -8 449 -10 1381 -8 1481 3 1357 -3 1422
72 45 51 57 95 50 197 -9 137 -74 312 -169 452 -123 181 -332 338 -548 411
-39 13 -73 26 -76 29 -3 3 10 25 29 50 47 62 90 139 122 218 26 66 26 67 71
72 60 6 117 46 143 99 19 41 21 61 21 248 0 187 -2 207 -21 248 -25 51 -78 89
-138 100 -42 7 -44 9 -61 63 -41 133 -141 290 -245 386 -196 180 -497 281
-735 247z m275 -234 c135 -34 218 -82 321 -185 65 -64 100 -110 126 -160 50
-97 70 -167 57 -204 -10 -28 -9 -501 1 -531 7 -21 -165 -105 -279 -135 -52
-13 -127 -27 -168 -31 -71 -7 -74 -6 -94 20 -54 68 -172 88 -245 40 -59 -38
-87 -85 -92 -152 -5 -72 26 -134 86 -176 34 -24 51 -29 99 -29 67 0 92 11 148
63 36 34 48 39 121 49 69 10 208 43 279 66 38 12 -123 -131 -181 -162 -118
-62 -200 -85 -320 -91 -132 -5 -228 15 -350 75 -136 67 -270 211 -334 361 -22
50 -23 67 -25 350 -2 163 -4 312 -5 331 -1 23 14 65 43 125 93 190 253 323
453 376 98 26 257 26 359 0z m-628 -1715 c140 -83 341 -132 503 -121 151 9
333 67 430 136 l31 22 93 -20 c276 -60 498 -227 618 -465 38 -77 78 -206 78
-254 l0 -23 -1300 0 c-895 0 -1300 3 -1300 10 0 6 7 45 16 87 55 270 293 526
570 617 48 16 165 43 191 45 6 1 38 -15 70 -34z"/>
</g>
</svg>
