<?xml version="1.0" standalone="no"?>
<!DOCTYPE svg PUBLIC "-//W3C//DTD SVG 20010904//EN"
 "http://www.w3.org/TR/2001/REC-SVG-20010904/DTD/svg10.dtd">
<svg version="1.0" xmlns="http://www.w3.org/2000/svg"
 width="1024.000000pt" height="1024.000000pt" viewBox="0 0 1024.000000 1024.000000"
 preserveAspectRatio="xMidYMid meet">

<g transform="translate(0.000000,1024.000000) scale(0.100000,-0.100000)"
fill="#000000" stroke="none">
<path d="M5030 8464 c-126 -83 -404 -246 -564 -329 -580 -303 -1234 -512
-2014 -645 l-133 -23 4 -1181 c4 -1285 1 -1228 63 -1541 87 -446 233 -814 487
-1225 266 -430 681 -856 1152 -1182 246 -171 645 -388 947 -516 l146 -62 74
29 c294 118 710 338 973 514 119 80 329 242 451 349 662 579 1072 1265 1233
2066 66 328 64 271 68 1568 l4 1181 -108 17 c-514 83 -1136 255 -1563 432
-321 133 -731 349 -1008 530 -62 41 -116 74 -120 74 -4 0 -45 -25 -92 -56z
m102 -413 c-1 -7 3 -11 10 -9 19 3 80 -31 73 -42 -3 -6 0 -7 8 -4 8 3 18 1 22
-5 3 -6 -2 -11 -12 -12 -11 0 -13 -3 -5 -6 6 -2 10 -9 6 -14 -3 -5 4 -5 18 0
34 12 53 4 36 -17 -11 -13 -10 -14 7 -5 23 13 70 -6 70 -28 0 -7 7 -14 15 -16
13 -4 13 -3 0 6 -25 18 -2 12 30 -8 17 -10 31 -22 30 -27 -1 -5 4 -10 11 -13
7 -2 9 1 4 9 -4 6 19 -3 51 -21 33 -18 71 -39 87 -47 15 -7 27 -16 27 -18 0
-3 -5 -2 -12 2 -7 4 -8 3 -4 -5 4 -6 11 -9 16 -6 4 3 86 -33 182 -79 95 -46
210 -98 256 -116 59 -23 79 -36 70 -42 -9 -6 -6 -7 9 -3 13 3 37 -2 60 -13 38
-20 44 -22 64 -22 5 0 7 -4 4 -10 -3 -5 2 -9 12 -7 24 3 264 -83 258 -93 -3
-4 4 -10 15 -13 10 -3 20 -1 22 3 2 5 28 0 58 -10 30 -11 49 -19 43 -20 -23 0
-13 -18 10 -18 12 0 33 -3 47 -6 21 -5 22 -5 5 3 -29 14 -2 13 32 -1 15 -6 37
-13 48 -15 52 -9 125 -35 139 -48 17 -18 30 -20 20 -3 -5 8 0 9 17 5 13 -4 78
-19 144 -33 66 -15 126 -33 134 -41 8 -9 29 -13 50 -12 20 2 78 -3 129 -11
l93 -14 -4 -986 -4 -985 -26 -155 c-39 -230 -39 -230 -48 -224 -5 3 -6 -2 -3
-10 9 -23 -16 -119 -34 -133 -10 -8 -11 -13 -4 -13 7 0 12 -5 12 -11 0 -5 -5
-7 -10 -4 -7 4 -9 -3 -5 -22 4 -16 3 -23 -2 -16 -5 7 -9 -2 -9 -25 -2 -61 -84
-288 -99 -275 -4 5 -6 1 -2 -8 3 -9 2 -20 -2 -25 -5 -5 -14 -30 -21 -57 -11
-41 -15 -46 -29 -35 -14 11 -14 11 -3 -4 15 -19 3 -51 -27 -76 -9 -8 -10 -11
-4 -7 20 10 11 -11 -84 -183 -19 -34 -38 -60 -43 -57 -6 3 -7 0 -4 -8 3 -8
-14 -43 -38 -78 -47 -70 -58 -81 -73 -75 -6 2 -10 -8 -10 -23 1 -38 -145 -246
-157 -224 -3 4 -3 2 -1 -5 3 -15 -42 -67 -59 -67 -6 0 -13 -6 -16 -14 -3 -9 0
-11 9 -5 12 7 12 5 0 -9 -7 -9 -18 -14 -24 -10 -5 3 -7 2 -4 -4 4 -6 -8 -27
-26 -47 -26 -29 -35 -34 -45 -24 -11 11 -12 10 -7 -3 4 -11 -1 -22 -14 -31
-12 -8 -20 -17 -18 -19 2 -2 -8 -15 -22 -29 -13 -14 -21 -19 -17 -12 8 14 -3
16 -22 3 -8 -4 -12 -15 -10 -23 2 -8 -24 -42 -58 -74 -70 -68 -145 -136 -126
-114 17 20 15 35 -3 16 -8 -8 -15 -19 -15 -24 0 -17 -48 -54 -61 -47 -8 6 -10
4 -4 -5 6 -10 4 -12 -8 -7 -10 3 -17 2 -17 -3 0 -6 6 -10 13 -11 6 0 1 -5 -13
-11 -14 -6 -28 -10 -32 -10 -5 1 -8 -5 -8 -13 0 -8 -4 -15 -9 -15 -5 0 -22
-13 -38 -29 -24 -24 -33 -27 -49 -18 -16 9 -17 8 -7 -5 11 -12 5 -20 -31 -47
-24 -19 -47 -33 -50 -32 -4 1 -16 -8 -29 -19 -40 -38 -85 -61 -113 -58 -15 2
-29 -3 -31 -9 -3 -7 0 -13 7 -13 6 0 8 5 5 10 -7 11 8 14 18 3 11 -10 -72 -66
-89 -59 -10 4 -13 2 -8 -6 5 -8 2 -9 -11 -5 -9 4 -24 2 -31 -4 -8 -6 -21 -8
-30 -5 -14 5 -15 4 -4 -9 9 -11 16 -13 24 -5 5 5 17 10 25 10 10 -1 7 -6 -9
-14 -18 -11 -30 -11 -45 -3 -18 9 -18 8 -7 -6 12 -14 10 -16 -15 -15 -15 1
-39 -4 -53 -10 l-25 -11 27 2 c15 1 24 5 22 9 -3 4 2 5 11 2 19 -8 15 -13 -14
-19 -12 -2 -28 -11 -37 -20 -22 -22 -59 -41 -49 -25 5 8 3 11 -6 8 -8 -3 -13
-11 -11 -18 3 -11 0 -11 -13 0 -13 11 -15 10 -10 -2 4 -9 0 -18 -9 -21 -9 -4
-15 -2 -13 2 1 5 -2 11 -8 13 -5 1 -10 -4 -10 -12 0 -15 -6 -20 -26 -20 -5 0
-7 6 -3 13 4 6 -4 3 -17 -9 -13 -12 -32 -24 -42 -27 -9 -4 -16 -12 -15 -18 2
-6 -4 -14 -12 -16 -13 -4 -13 -3 -1 5 11 8 8 10 -12 9 -19 -2 -23 -5 -15 -15
8 -9 7 -11 -7 -6 -11 5 -16 4 -12 -3 7 -10 -62 -48 -71 -38 -3 3 -14 -2 -24
-12 -10 -9 -18 -12 -18 -7 0 5 -4 4 -8 -2 -4 -6 -20 -17 -37 -25 -37 -18 -69
-7 -260 87 -254 125 -347 178 -540 303 -267 173 -442 315 -665 540 -151 151
-211 220 -333 380 -315 411 -518 883 -606 1404 -48 285 -51 352 -51 1325 l0
910 53 7 c28 4 102 18 162 31 61 14 144 32 185 40 426 86 1089 325 1490 537
136 72 438 245 485 278 40 28 62 32 57 10z m2181 -868 c-7 -2 -19 -2 -25 0 -7
3 -2 5 12 5 14 0 19 -2 13 -5z"/>
<path d="M5650 7730 c8 -5 20 -10 25 -10 6 0 3 5 -5 10 -8 5 -19 10 -25 10 -5
0 -3 -5 5 -10z"/>
<path d="M5708 7703 c7 -3 16 -2 19 1 4 3 -2 6 -13 5 -11 0 -14 -3 -6 -6z"/>
<path d="M5835 7650 c-4 -6 -3 -10 2 -9 4 1 15 1 23 0 13 -1 13 -2 0 -11 -9
-6 -10 -10 -3 -10 21 0 24 19 4 30 -14 7 -22 7 -26 0z"/>
<path d="M6008 7563 c6 -2 18 -2 25 0 6 3 1 5 -13 5 -14 0 -19 -2 -12 -5z"/>
<path d="M6005 7540 c-3 -6 1 -7 9 -4 18 7 21 14 7 14 -6 0 -13 -4 -16 -10z"/>
<path d="M6090 7535 c0 -8 4 -15 10 -15 5 0 7 7 4 15 -4 8 -8 15 -10 15 -2 0
-4 -7 -4 -15z"/>
<path d="M6167 7505 c3 -8 9 -12 14 -9 12 7 11 11 -5 17 -10 4 -13 1 -9 -8z"/>
<path d="M6198 7483 c7 -3 16 -2 19 1 4 3 -2 6 -13 5 -11 0 -14 -3 -6 -6z"/>
<path d="M6400 7424 c0 -2 9 -8 20 -14 11 -6 20 -7 20 -2 0 6 -9 12 -20 15
-11 3 -20 3 -20 1z"/>
<path d="M6750 7296 c0 -2 7 -7 16 -10 8 -3 12 -2 9 4 -6 10 -25 14 -25 6z"/>
<path d="M7480 7136 c0 -2 11 -6 25 -8 13 -3 22 -1 19 3 -5 9 -44 13 -44 5z"/>
<path d="M4940 6785 c-157 -36 -273 -91 -396 -189 -167 -132 -286 -327 -330
-541 -8 -39 -17 -163 -21 -277 l-6 -207 -55 -16 c-60 -18 -100 -53 -133 -116
-18 -37 -19 -68 -19 -850 0 -904 -5 -845 70 -913 22 -19 57 -40 78 -46 27 -7
348 -9 1011 -8 534 2 971 0 971 -4 0 -3 -6 -9 -12 -11 -8 -3 -8 -6 -2 -6 10
-1 33 18 106 86 61 57 58 15 58 905 0 779 -1 815 -19 851 -31 61 -34 72 -16
57 10 -8 15 -9 15 -1 0 10 -14 15 -33 12 -12 -2 -57 35 -51 42 3 3 -1 4 -8 4
-7 -1 -32 2 -55 7 l-43 8 0 156 c0 87 -5 195 -12 242 -6 47 -11 102 -12 122 0
21 -4 34 -10 31 -5 -4 -7 3 -4 15 4 12 3 20 -1 18 -3 -2 -22 35 -40 82 -19 48
-40 94 -48 103 -8 9 -13 20 -11 25 2 5 0 9 -4 9 -11 0 -59 76 -53 85 3 4 -2
13 -10 20 -8 7 -13 16 -10 20 3 5 1 11 -4 15 -6 3 -9 11 -7 18 1 7 1 8 -2 4
-2 -4 -10 -3 -17 3 -10 8 -15 8 -21 -1 -5 -8 -3 -9 6 -4 9 6 11 4 5 -5 -6 -9
-4 -11 5 -5 9 6 11 4 5 -5 -6 -9 -4 -11 5 -5 9 6 11 4 5 -5 -6 -9 -4 -11 6 -5
8 5 11 4 6 0 -4 -5 1 -18 10 -29 10 -12 -14 9 -52 47 -39 37 -80 74 -93 83
-12 8 -20 19 -17 23 2 5 -5 17 -18 27 l-22 19 19 -22 c27 -32 15 -29 -51 13
-66 43 -164 89 -211 99 -18 3 -30 10 -28 13 5 8 -7 9 -204 16 -116 4 -171 2
-220 -9z m333 -384 c21 -7 35 -16 32 -21 -3 -6 1 -7 9 -4 9 3 16 2 16 -4 0 -5
12 -13 28 -17 42 -10 107 -56 93 -65 -9 -5 -8 -9 4 -14 9 -3 13 -11 9 -17 -4
-8 -3 -9 4 -5 7 4 12 2 12 -3 0 -6 5 -11 12 -11 6 0 1 11 -12 25 -13 14 -19
25 -14 25 6 0 28 -19 49 -41 22 -23 35 -39 28 -35 -7 4 -9 -1 -6 -14 3 -11 10
-20 15 -20 5 0 6 6 2 13 -5 8 -3 8 9 -2 9 -7 15 -17 12 -21 -2 -4 5 -16 16
-26 11 -10 17 -24 14 -31 -2 -8 0 -11 5 -8 14 8 29 -58 16 -67 -10 -7 -2 -12
17 -9 4 0 8 -9 8 -21 1 -13 4 -34 6 -48 3 -14 7 -107 10 -207 l4 -183 -550 0
-551 0 0 183 c0 203 10 261 60 362 69 136 196 242 345 287 68 20 231 19 298
-1z m605 -1813 c-1 -326 -3 -567 -5 -535 -2 31 -8 57 -13 57 -5 0 -6 -24 -3
-53 l5 -53 -48 -4 c-27 -3 -146 -5 -264 -5 l-215 0 -31 183 c-18 100 -39 215
-48 254 -15 67 -15 73 0 81 9 5 35 28 58 50 22 22 32 34 22 26 -17 -12 -19
-12 -11 1 4 8 13 21 19 29 12 16 16 192 4 185 -4 -3 -8 0 -8 6 0 20 -50 87
-75 100 -14 7 -25 17 -25 22 0 5 5 6 12 2 7 -5 8 -3 3 5 -4 8 -11 9 -17 3 -5
-5 -28 -4 -58 4 -108 28 -217 -25 -273 -131 -45 -87 -16 -225 61 -283 27 -21
32 -30 27 -50 -5 -20 -85 -480 -85 -489 0 -2 -124 -3 -275 -3 l-275 0 0 595 0
595 760 0 760 0 -2 -592z"/>
<path d="M5560 6142 c0 -12 19 -26 26 -19 2 2 -2 10 -11 17 -9 8 -15 8 -15 2z"/>
<path d="M5652 5650 c0 -19 2 -27 5 -17 2 9 2 25 0 35 -3 9 -5 1 -5 -18z"/>
<path d="M5218 5583 c12 -2 32 -2 45 0 12 2 2 4 -23 4 -25 0 -35 -2 -22 -4z"/>
<path d="M5128 5163 c6 -2 18 -2 25 0 6 3 1 5 -13 5 -14 0 -19 -2 -12 -5z"/>
<path d="M5298 5163 c12 -2 32 -2 45 0 12 2 2 4 -23 4 -25 0 -35 -2 -22 -4z"/>
<path d="M5578 5163 c34 -2 90 -2 125 0 34 2 6 3 -63 3 -69 0 -97 -1 -62 -3z"/>
<path d="M5845 5160 c3 -5 8 -10 11 -10 2 0 4 5 4 10 0 6 -5 10 -11 10 -5 0
-7 -4 -4 -10z"/>
<path d="M5862 4980 c0 -14 2 -19 5 -12 2 6 2 18 0 25 -3 6 -5 1 -5 -13z"/>
<path d="M5853 4590 c0 -30 2 -43 4 -27 2 15 2 39 0 55 -2 15 -4 2 -4 -28z"/>
<path d="M5730 6630 c-8 -5 -17 -7 -21 -4 -4 2 -11 -1 -15 -7 -4 -7 -3 -9 4
-5 5 3 13 0 15 -6 4 -10 6 -10 6 0 1 6 5 12 10 12 5 0 7 -10 3 -22 -5 -20 -3
-21 10 -10 26 21 15 58 -12 42z"/>
<path d="M5951 6314 c0 -11 3 -14 6 -6 3 7 2 16 -1 19 -3 4 -6 -2 -5 -13z"/>
<path d="M6073 5795 c0 -22 2 -30 4 -17 2 12 2 30 0 40 -3 9 -5 -1 -4 -23z"/>
<path d="M6176 5546 c3 -9 13 -16 22 -16 8 0 13 1 11 3 -2 1 -12 9 -22 16 -15
12 -17 12 -11 -3z"/>
<path d="M6266 5427 c3 -10 9 -15 12 -12 3 3 0 11 -7 18 -10 9 -11 8 -5 -6z"/>
<path d="M7501 5104 c0 -11 3 -14 6 -6 3 7 2 16 -1 19 -3 4 -6 -2 -5 -13z"/>
<path d="M7250 4200 c0 -5 5 -10 10 -10 6 0 10 5 10 10 0 6 -4 10 -10 10 -5 0
-10 -4 -10 -10z"/>
<path d="M6273 3960 c0 -25 2 -35 4 -22 2 12 2 32 0 45 -2 12 -4 2 -4 -23z"/>
<path d="M7137 3940 c-3 -11 -3 -20 -1 -20 2 0 8 9 14 20 6 11 7 20 2 20 -6 0
-12 -9 -15 -20z"/>
<path d="M6273 3860 c0 -25 2 -35 4 -22 2 12 2 32 0 45 -2 12 -4 2 -4 -23z"/>
<path d="M7100 3875 c-7 -9 -10 -18 -7 -21 3 -3 10 4 17 15 13 25 8 27 -10 6z"/>
<path d="M6185 3650 c-3 -5 -1 -10 4 -10 6 0 11 5 11 10 0 6 -2 10 -4 10 -3 0
-8 -4 -11 -10z"/>
<path d="M6898 3585 c8 -14 6 -22 -6 -32 -10 -7 -12 -13 -6 -13 24 0 34 26 18
46 -15 19 -15 19 -6 -1z"/>
<path d="M6821 3511 c-8 -5 -9 -11 -3 -15 5 -3 12 1 16 9 6 17 6 18 -13 6z"/>
<path d="M6847 3489 c-4 -16 -3 -18 9 -8 7 6 11 15 8 20 -8 13 -11 11 -17 -12z"/>
<path d="M6677 3289 c-3 -12 -10 -18 -16 -14 -6 3 -11 -1 -11 -11 0 -15 4 -14
25 6 26 24 32 40 16 40 -5 0 -11 -9 -14 -21z"/>
<path d="M6410 3030 c-13 -8 -12 -10 3 -10 9 0 17 5 17 10 0 12 -1 12 -20 0z"/>
<path d="M6283 2919 c-1 -12 3 -16 13 -12 18 6 18 19 1 26 -7 3 -13 -3 -14
-14z"/>
<path d="M6165 2861 c-6 -11 13 -26 22 -17 4 3 1 6 -6 6 -7 0 -9 5 -6 10 3 6
4 10 1 10 -3 0 -7 -4 -11 -9z"/>
<path d="M6104 2778 c9 -5 23 -5 32 0 12 6 7 9 -16 9 -23 0 -28 -3 -16 -9z"/>
<path d="M6020 2716 c0 -2 7 -6 15 -10 8 -3 15 -1 15 4 0 6 -7 10 -15 10 -8 0
-15 -2 -15 -4z"/>
<path d="M6007 2695 c3 -8 9 -12 14 -9 12 7 11 11 -5 17 -10 4 -13 1 -9 -8z"/>
<path d="M5950 2665 c-7 -8 -9 -15 -6 -15 4 0 14 7 22 15 9 8 11 15 6 15 -5 0
-15 -7 -22 -15z"/>
<path d="M5870 2626 c0 -2 7 -7 16 -10 8 -3 12 -2 9 4 -6 10 -25 14 -25 6z"/>
<path d="M5235 2290 c4 -6 11 -8 16 -5 14 9 11 15 -7 15 -8 0 -12 -5 -9 -10z"/>
<path d="M5250 2270 c-18 -12 -2 -12 25 0 13 6 15 9 5 9 -8 0 -22 -4 -30 -9z"/>
</g>
</svg>
