<?xml version="1.0" standalone="no"?>
<!DOCTYPE svg PUBLIC "-//W3C//DTD SVG 20010904//EN"
 "http://www.w3.org/TR/2001/REC-SVG-20010904/DTD/svg10.dtd">
<svg version="1.0" xmlns="http://www.w3.org/2000/svg"
 width="1024.000000pt" height="1024.000000pt" viewBox="0 0 1024.000000 1024.000000"
 preserveAspectRatio="xMidYMid meet">

<g transform="translate(0.000000,1024.000000) scale(0.100000,-0.100000)"
fill="#000000" stroke="none">
<path d="M5026 7790 c-27 -11 -66 -35 -85 -54 -33 -32 -43 -36 -121 -45 -193
-22 -347 -56 -533 -117 -782 -257 -1421 -922 -1651 -1720 -43 -150 -61 -236
-81 -394 -16 -122 -17 -126 -51 -153 -19 -16 -46 -50 -62 -75 -23 -41 -27 -58
-27 -127 0 -95 21 -142 88 -201 41 -36 44 -43 51 -104 11 -106 43 -257 81
-390 121 -421 347 -802 665 -1121 420 -422 942 -674 1550 -750 127 -16 431
-16 555 0 906 115 1692 687 2066 1503 260 567 307 1210 134 1807 -48 165 -96
285 -181 452 -116 226 -236 401 -388 566 l-66 71 0 66 c0 151 -107 300 -241
336 -53 15 -157 14 -206 0 -39 -12 -42 -11 -134 42 -278 160 -634 272 -990
313 -48 5 -63 12 -98 45 -70 67 -180 87 -275 50z m165 -171 c52 -56 34 -135
-37 -165 -29 -12 -39 -12 -68 0 -108 45 -76 194 42 196 25 0 41 -8 63 -31z
m-262 -248 c62 -62 95 -75 186 -76 93 0 150 23 201 82 l31 35 137 -22 c271
-43 559 -139 751 -249 l50 -29 0 -98 c1 -87 4 -106 28 -155 32 -67 109 -142
175 -171 71 -32 172 -35 251 -9 l63 22 37 -42 c358 -414 545 -865 580 -1400
33 -496 -102 -991 -385 -1417 -396 -593 -1085 -990 -1774 -1020 -428 -19 -780
53 -1145 233 -345 170 -612 391 -846 700 -203 267 -368 652 -422 985 -25 152
-26 143 20 193 52 56 78 134 67 204 -8 59 -48 136 -87 169 l-29 24 17 108 c55
362 162 646 353 938 102 155 183 255 312 384 342 343 838 585 1310 639 41 5
76 9 78 10 1 0 20 -17 41 -38z m1755 -215 c127 -53 134 -229 12 -293 -41 -21
-125 -13 -162 16 -40 31 -63 78 -64 129 -1 114 111 191 214 148z m-3949 -1962
c30 -19 49 -74 40 -114 -17 -76 -120 -106 -176 -51 -24 24 -29 38 -29 76 0 64
39 105 100 105 22 0 52 -7 65 -16z"/>
<path d="M5085 7079 c-36 -21 -45 -42 -45 -106 0 -44 -4 -63 -12 -63 -55 0
-214 -26 -313 -49 -367 -89 -670 -269 -913 -541 -259 -290 -421 -666 -457
-1062 l-7 -78 -53 0 c-96 0 -135 -26 -135 -88 0 -50 35 -72 118 -72 l71 0 5
-45 c3 -25 9 -66 12 -92 11 -95 57 -280 94 -378 213 -568 670 -976 1259 -1124
67 -17 168 -36 226 -43 l105 -12 0 -79 c0 -70 2 -80 26 -104 21 -21 32 -24 62
-19 57 9 72 35 72 126 l0 77 72 7 c274 25 617 150 845 308 386 266 637 638
737 1089 13 63 28 146 32 184 4 39 8 77 9 85 1 12 19 16 78 18 68 3 78 5 97
29 27 35 26 78 -5 108 -21 22 -33 25 -94 25 l-70 0 -5 43 c-3 23 -10 85 -17
137 -32 271 -152 577 -317 810 -86 121 -281 317 -399 400 -287 202 -529 290
-920 336 l-43 5 0 64 c0 45 -5 69 -17 84 -22 25 -71 35 -98 20z m231 -380 c68
-22 156 -72 235 -134 59 -46 171 -176 221 -255 55 -86 130 -242 121 -250 -10
-9 -255 -56 -368 -70 -98 -13 -315 -27 -321 -21 -2 2 -4 175 -4 383 l0 378 28
-6 c15 -3 55 -15 88 -25z m-276 -358 l0 -379 -77 4 c-228 15 -623 77 -623 100
0 13 108 217 143 269 48 71 182 212 248 261 84 61 220 122 277 123 l32 1 0
-379z m-580 240 c0 -5 -7 -14 -16 -21 -48 -40 -209 -316 -255 -437 l-8 -23
-126 44 c-70 24 -129 47 -133 50 -9 10 102 119 193 191 95 74 169 122 262 170
73 37 83 40 83 26z m1463 -60 c126 -72 202 -129 313 -235 72 -69 86 -87 74
-95 -18 -12 -242 -93 -245 -89 -2 2 -27 55 -57 118 -30 63 -93 173 -141 243
-99 146 -98 147 56 58z m-1898 -544 c50 -16 92 -31 94 -33 2 -2 -10 -54 -27
-116 -37 -136 -58 -249 -72 -383 -7 -75 -14 -102 -27 -110 -41 -25 -91 -78
-108 -115 l-18 -40 -179 0 -178 0 0 28 c1 50 29 231 50 312 40 157 116 335
206 481 l36 57 66 -25 c37 -14 108 -39 157 -56z m2473 -25 c130 -226 202 -454
226 -709 l6 -63 -179 0 -179 0 -6 25 c-7 26 -85 111 -120 130 -14 8 -20 29
-27 105 -13 129 -34 250 -65 367 -14 54 -28 108 -31 120 -4 18 2 23 49 37 29
8 98 33 153 55 55 22 103 40 106 40 3 1 33 -48 67 -107z m-2123 -71 c174 -41
476 -81 610 -81 l55 0 0 -310 0 -310 -335 0 -334 0 -16 33 c-29 60 -96 119
-149 133 l-29 7 7 76 c13 134 58 364 91 459 6 15 5 15 100 -7z m1603 -48 c35
-116 82 -378 82 -458 0 -14 -13 -25 -47 -39 -52 -22 -114 -80 -133 -126 l-12
-30 -334 0 -334 0 0 310 0 310 55 0 c132 0 641 73 663 94 3 3 13 6 23 6 12 0
22 -18 37 -67z m-1831 -633 c8 0 28 -13 44 -29 23 -24 29 -38 29 -73 -1 -46
-10 -64 -50 -91 -53 -37 -131 -6 -151 61 -10 33 -9 45 7 77 18 38 66 69 92 60
8 -3 20 -5 29 -5z m2047 -27 c31 -31 41 -62 31 -100 -16 -67 -91 -101 -150
-68 -65 34 -77 114 -26 166 41 40 106 41 145 2z m-2323 -180 c16 -43 56 -91
99 -119 34 -23 40 -32 45 -73 21 -176 57 -354 100 -497 6 -18 -2 -24 -77 -49
-46 -15 -116 -40 -156 -56 l-73 -28 -37 57 c-48 75 -136 255 -167 339 -42 118
-95 357 -95 429 l0 24 175 0 175 0 11 -27z m1169 -183 l0 -210 -48 -24 c-53
-27 -101 -75 -120 -122 -13 -30 -14 -30 -129 -43 -109 -12 -432 -73 -452 -85
-26 -16 -127 458 -108 507 3 8 19 18 35 22 42 9 107 68 132 120 l22 45 334 0
334 0 0 -210z m845 169 c23 -49 95 -115 136 -124 17 -4 33 -13 35 -20 9 -23
-26 -243 -59 -374 l-32 -126 -30 1 c-17 1 -97 15 -180 32 -82 17 -200 37 -262
44 -105 11 -112 13 -118 36 -9 35 -80 108 -130 131 l-45 21 0 210 0 210 333 0
334 0 18 -41z m839 32 c9 -15 -24 -213 -55 -324 -35 -130 -92 -267 -157 -379
-75 -130 -75 -130 -97 -125 -17 4 -286 98 -293 102 -1 1 13 62 32 136 36 140
66 317 66 388 0 35 4 43 24 51 40 15 93 68 115 115 l21 45 169 0 c94 0 172 -4
175 -9z m-1547 -581 c40 -24 55 -53 55 -101 -1 -66 -47 -109 -117 -109 -55 0
-105 52 -105 110 0 23 5 50 11 61 14 27 68 59 99 59 14 0 39 -9 57 -20z m-312
-202 c21 -51 65 -97 120 -127 l50 -28 3 -280 2 -281 -62 14 c-177 40 -369 187
-508 389 -30 44 -130 233 -130 247 0 15 211 59 392 82 57 8 107 14 111 15 4 0
14 -14 22 -31z m735 1 c69 -11 164 -29 212 -40 l88 -21 -16 -36 c-8 -20 -35
-75 -60 -120 -136 -251 -328 -422 -544 -481 -41 -12 -76 -21 -77 -21 -2 0 -3
127 -3 283 l1 282 40 19 c59 27 97 63 124 116 28 56 9 54 235 19z m-1410 -122
c0 -47 161 -324 248 -426 l37 -44 -55 28 c-156 78 -273 160 -418 292 -97 88
-101 79 53 129 111 37 135 40 135 21z m2009 -26 c58 -20 106 -42 108 -48 5
-15 -148 -153 -247 -224 -80 -57 -268 -165 -275 -157 -2 2 19 33 47 68 66 85
158 241 194 330 23 54 33 70 49 69 11 0 67 -17 124 -38z"/>
</g>
</svg>
